<?xml version="1.0" encoding="UTF-8"?>
<svg width="42.313mm" height="34.86mm" version="1.1" viewBox="0 0 42.313 34.86" xmlns="http://www.w3.org/2000/svg" xmlns:cc="http://creativecommons.org/ns#" xmlns:dc="http://purl.org/dc/elements/1.1/" xmlns:rdf="http://www.w3.org/1999/02/22-rdf-syntax-ns#">
 <metadata>
  <rdf:RDF>
   <cc:Work rdf:about="">
    <dc:format>image/svg+xml</dc:format>
    <dc:type rdf:resource="http://purl.org/dc/dcmitype/StillImage"/>
    <dc:title/>
   </cc:Work>
  </rdf:RDF>
 </metadata>
 <g transform="translate(-173.88 -6.0045)">
  <path class="fil3" d="m173.88 23.263v0.41173c0.34315 0.08661 0.19964 0.14884 0.28727 0.42697 0.0495 0.15748 0.0457 0.12649 0.1265 0.22352 0.0668 0.08001-7.7e-4 0.18593 0.17297 0.19025 0.0376-0.02718 0.0599-0.04547 0.0754-0.08992 0.0135-0.03861 0.0183-0.16459 0.12801-0.11557 0.032 0.01448 0.0305 0.0188 0.0531 0.04801 0.0541 0.0701 0.15011 0.12395 0.2192 0.17475l0.127 0.0856c0 0.29769 0.0569 0.27051 0.12497 0.49962 0.0813 0.2733 0.12421 0.17704 0.30328 0.30683 0 0.15342-0.014 0.20904 0.0442 0.31242 0.0965 0.17145 0.095 0.39446 0.11837 0.6096 0.0249 0.22809 0.0447 0.17602 0.15443 0.17602 0.0185-0.08636 0.0198-0.17323 0.0386-0.26721 0.018-0.09068 0.0541-0.15545 0.0762-0.24359 0.0104-0.0414 0.0381-0.21819 0.0569-0.24714 0.0429-0.06629 0.15748-0.03531 0.23571-0.07112 0.0744-0.03404 0.0884-0.10668 0.11608-0.18313 0.0295-0.08128 0.0627-0.14173 0.0833-0.23571 0.0376-0.1717-0.0165-0.43256 0.0592-0.58776 0.0925 0.0023 0.0803 0.03251 0.17068 0.05563 0.15545 0.03962 0.11507 0.21133 0.11456 0.35662l0.0455 0.67132c0.0384 0.3937 0.0229 0.2413 0.18949 0.53289 0.0157 0.02769 0.0264 0.0442 0.0457 0.07061 0.0427 0.05791 0.11455 0.07214 0.16256 0.11582 0.0772 0.0701 0.15976 0.52426 0.16027 0.63271 5.1e-4 0.10947-0.015 0.34188 0.11049 0.37821 0.0937-0.07417 0.078-0.25933 0.0937-0.41351l0.0785-0.44679c0.0201-0.0668 0.0498-0.12167 0.0617-0.19101 0.017-0.10033 2e-3 -0.14453 0.0213-0.21539 0.0427-0.1524 0.19431-0.0348 0.24562-0.26746 0.0226-0.10185 0.0107-0.11532 0.066-0.18567 0.0851-0.1082 0.0668-0.27965 0.10439-0.41885 0.0381-0.14021 0.1204-0.51867 0.13462-0.66091 9e-3 -0.09017 0.0488-0.36805 0.0821-0.44298 0.11277 0.08941 0.10718 0.54737 0.12598 0.68707 0.0272 0.20117-0.0129 0.28372 0.0856 0.47371 0.0772 0.1491 0.0739 0.55982 0.18491 0.64033 0.10897-0.0315 0.11659-0.21285 0.1397-0.31191 0.045-0.19431-8e-3 -0.25425 0.0508-0.37414 0.13081 0 0.29693 0.16053 0.34239 0.28143 0.0907 0.24079 0.0747 0.28727 0.11913 0.52324 0.0302 0.16104 0.0462 0.40716 0.046 0.60198-2.5e-4 0.18237-4e-3 0.48362 0.0475 0.60046 0.0566 0 0.0973-0.01245 0.12548-0.01041 0.0356 0.0023 0.0582 0.02286 0.11252 0.02769 0.10973-0.17729 0.0737-0.78613 0.10211-1.0048 0.0328-0.25095 0.045-0.47523 0.10871-0.72288l0.0272-0.26238c0.22733-0.13005 0.19304-0.0058 0.20701 0.18771 0.0188 0.26238 7e-3 0.5903 0.0394 0.81509 0.0249 0.17221 0.0797 0.23444 0.13563 0.5395 0.0307 0.16739-5.1e-4 0.50952 0.14123 0.55042 0.0889-0.07036 0.0879-0.47473 0.12369-0.63805 0.0175-0.0795 0.0231-0.14808 0.0447-0.22631 0.0198-0.07112 0.0508-0.12675 0.0635-0.18872 0.0152-0.07518-9e-3 -0.17272 0.016-0.24028 0.031-0.08509 0.15265-0.09931 0.20726-0.17043 0.0442-0.0574 0.0813-0.12776 0.13742 0.01651 0.0516 0.13284 0.0572 0.26238 0.0889 0.40132 0.0419 0.18415 0.097 0.15799 0.11252 0.37592 4e-3 0.05994 0.0165 0.08458 0.0325 0.1364 0.0343 0.10922 0.0498 0.12243 0.10262 0.21488 0.11227 0.19609 0.079 0.34646 0.0853 0.57658 9e-3 0.32639 0.0241 0.90119 0.10948 1.2024 0.0338 0.11862 0.0249 0.16053 0.0427 0.29693 0.0401 0.3081 0.0208 1.0444 0.10211 1.2276 0.13284-0.03835 0.10947-0.51943 0.12268-0.6223 0.0302-0.24079 0.0211-0.44323 0.0607-0.6891 0.0206-0.12725 0.0523-0.1811 0.0711-0.30048 0.0168-0.1077 0.0211-0.22073 0.0361-0.33833 0.047-0.36551-0.063-0.26924 0.11811-0.43866 0.045-0.04191 0.0866-0.20244 0.11506-0.27 0.0183-0.04394 0.031-0.09525 0.0457-0.13919 0.10541-0.31648 0.14478-0.59995 0.14478-0.97561 0-0.26848 0.016-0.47549 0.016-0.73762 0-0.06833 0.0117-0.58903 0.0297-0.63678 0.0191-0.0508 5.1e-4 -0.03531 0.0495-0.04928 2e-3 0.09423 0.0282 0.0922 0.032 0.18821l0.0409 0.38354c7e-3 0.06782-3e-3 0.09627 2e-3 0.15342 8e-3 0.09677 0.0285 0.20599 0.0234 0.29235l0.0371 0.5141c0.013 0.10033 9e-3 0.31013 0.0203 0.42672 0.015 0.15265 0.0282 0.27254 0.0345 0.4257 5e-3 0.12624 0.0439 0.27203 0.0478 0.41148 2e-3 0.0729-1e-3 0.15062-1e-3 0.22428 0 0.10312 0.016 0.12446 0.017 0.22174 3e-3 0.30201-5.1e-4 0.60757-5.1e-4 0.90983 0 0.17348 0.0165 0.2827 0.016 0.44602-1e-3 0.26899-8e-3 0.64008 0.0178 0.90703 0.0168 0.17577 0.12802 0.5141 0.15951 0.75387 0.0175 0.13386-6e-3 0.31318 0.10821 0.3462 0.12776 0 0.066-0.36754 0.1745-0.44602 0.0533 0.10897 0.0455 0.18491 0.047 0.34366 7.6e-4 0.08865 0.0127 0.09423 0.0165 0.17069 3e-3 0.06452 0 0.14021 0 0.20599 2.5e-4 0.15621-9e-3 0.23241-7.7e-4 0.36068 0.017 0.25044 0.0503 0.49378 0.0483 0.73711-2e-3 0.30429 0.0305 0.63322 0.0467 0.92735 7e-3 0.12421 0.0137 0.08357 0.0325 0.17069 0.0521-0.01499 0.048-0.01219 0.0605-0.07188 0.0597-0.28829 0.0185-0.64008 0.0483-0.92558 0.017-0.16459-3e-3 -0.39091 2e-3 -0.56413 0.0125-0.45085 0.14681-1.1107 0.143-1.5263-2e-3 -0.18263 0.0335-0.34849 0.032-0.53137-2e-3 -0.18948 0.0157-0.34417 0.0157-0.54915v-0.54889c-2.6e-4 -0.8316 0.16154-0.41478 0.20396-0.87732 0.015-0.16281-2e-3 -0.38583 0.0429-0.51968 0.033-0.10008 0.0554-0.08103 0.0754-0.19279 0.0297-0.16662 0.0338-0.34036 0.0424-0.52045l0.0498-0.51232c0.0102-0.06426 0.0422-0.18313 0.0381-0.23622-0.0191-0.24409 0.10567-0.20269 0.15012-0.38379 0.15621 0.04521 0.15875 0.24181 0.15799 0.39522-1e-3 0.25248 0.10287 0.45669 0.13716 0.69215 0.0132 0.09169 0.0127 0.17653 0.0244 0.26518 0.01 0.07468 0.0295 0.17551 0.0396 0.24841 0.0142 0.09957 0.0394 0.16256 0.13208 0.1143 0.05-0.11252-0.0208-0.26467 0.111-0.36017 0.0833 0.07849 0.0744 0.2827 0.0793 0.39472l0.032 0.96037c0 0.2032-0.0152 0.30175 0.0635 0.42901 0.14402-0.10439 0.0952-0.27661 0.13615-0.48743l0.045-0.27711c0.0185-0.09449 0.0551-0.14503 0.0764-0.24333 0.0384-0.17856 0.0754-0.97333 0.0754-1.205 0-0.21946 0.0157-0.38862 0.0157-0.61747 0-0.10871 0-0.21742-5.1e-4 -0.32639-5.1e-4 -0.12192 0.017-0.17755 0.0165-0.3081-2e-3 -0.32588 5.1e-4 -0.53086 0.0307-0.85877 7e-3 -0.0762 0.0219-0.1331 0.0973-0.13614 0.0505-2e-3 0.0813 0.01981 0.10541 0.05588 0.0493 0.07366 0.031 0.159 0.0427 0.24536 0.0663 0.49225 0.0168 1.3645 0.11938 1.8092 0.0251 0.10846 0.0716 0.1745 0.10464 0.28118 0.0386 0.12446-3e-3 0.23216 0.11811 0.26695 0.0975-0.10008 0.08-0.3843 0.0793-0.54915-5.1e-4 -0.11811 0.0249-0.51689 0.049-0.59893l0.1331-0.49098c0.0358-0.17628-0.0582-0.50089 0.13538-0.50546 0.10033 0.20523 0.0422 0.77191 0.0564 0.88113 0.0193 0.14656-0.0178 0.20371 0 0.32664 0.0254 0.17653-0.0155 1.0208 0.0272 1.3609 0.0104 0.08331 0.0206 0.21895 0.0277 0.31318 0.0211 0.2827 0.14478 0.58826 0.1425 0.90957l0.047 1.1841c5e-3 0.07214 0.0122 0.09627 0.0798 0.10236 0.0338-0.13691 0.0455-0.0955 0.0645-0.29058 8e-3 -0.08484 0.029-0.21768 0.10998-0.2413 0.0135 0.05461 0.0216 0.04115 0.0414 0.10947 0.0366 0.12522 0.0224 0.26467 0.0503 0.39167 0.0325 0.14757 0.032 0.56591 0.0546 0.74727 3e-3 0.02438 0.0206 0.10389 0.0236 0.12878 0.0129 0.10541 0.0119 0.19177 0.0264 0.29743 0.0257 0.1905 0.0287 0.45491 0.12065 0.52146 0.0846-0.06121 0.0709-0.0856 0.0808-0.22149 6e-3 -0.0828 0.0231-0.21158 0.0295-0.29388 8e-3 -0.10312-6e-3 -0.22098 2e-3 -0.3241 8e-3 -0.10084 0.015-0.18364 0.015-0.30963 0-0.33096 0.0333-0.6538 0.0315-0.92634l0.0526-0.90373c0.0117-0.08636 0.0188-0.1905 0.0292-0.29439l0.0292-0.29439c3e-3 -0.07772 0.0221-0.20371 0.0292-0.27711 0.0198-0.19685 0.0191-0.4285 0.018-0.63221-5.1e-4 -0.13716-5e-3 -0.18974 0.0478-0.27432 0.13945 0.01245 0.12776 0.16891 0.12725 0.29108l-5e-4 3.0198c0 0.28524-4e-3 0.57353-5.1e-4 0.85852 2e-3 0.14249 0.0216 0.26086 0.016 0.41173l0.0315 1.8697c1e-3 0.09525 0.016 0.10922 0.017 0.20447l0.017 0.61646c0.0394 0.58649 0.0945 1.2182 0.0935 1.7686-2.5e-4 0.16027 0.0163 0.25121 0.016 0.41173-2.6e-4 0.14351-0.0127 0.29997 7e-3 0.43891 0.032 0.22758 9e-3 0.59944 9e-3 0.84785 0 0.30785 0.016 0.55626 0.016 0.85776 0 0.43739-0.0358 1.2936 0.0475 1.6812l0.10465-0.45314 0.0541-1.2797c-2e-3 -0.24028 0.0391-0.50089 0.0663-0.73457 0.0488-0.41808 0.0343-0.65989 0.0612-1.0145 0.0526-0.69418 0.0325-1.4262 0.031-2.128-5.1e-4 -0.18669 0.0157-0.33147 0.0157-0.53188 0-0.28854-0.0284-0.81636 4e-3 -1.0759 0.0195-0.15418-3e-3 -0.35052 0.0135-0.5174 0.0221-0.22301 0.0429-0.2474 0.1303-0.40792 0.0592-0.10846 0.17678-0.69393 0.18542-0.86309 0.0173-0.33528 0.0312-0.69596 0.0312-1.047 0-0.32944-0.0254-0.77622 0.0114-1.0683 0.0196-0.15519-0.0226-0.6063 0.0785-0.72111 0.12522-0.14224 0.20371 0.05791 0.24968-0.26187 0.0117-0.0823 0.0348-0.15469 0.0401-0.23089 6e-3 -0.09093-5e-3 -0.17551 7e-3 -0.26645 0.0447-0.32029-0.0307-0.53315 0.11658-1.2289 0.0325-0.15342 0.0518-0.29032 0.0511-0.4765-2.6e-4 -0.08839-5e-3 -0.18288 7e-3 -0.26721 0.0122-0.08738 4e-3 -0.17069 0.0157-0.2573 0.0462-0.33045-0.0114-0.70282 0.0569-1.0193h0.0635l0.0414 0.17805c0.0104 0.0762 2e-3 0.14046 6e-3 0.21641 4e-3 0.08001 0.017 0.10541 0.0163 0.20549-2e-3 0.2225 0.0305 0.43586 0.061 0.63754 0.033 0.22022 0.0983 0.31191 0.11278 0.56439 6e-3 0.1049 0.0145 0.12268 0.0312 0.20625 0.0356 0.17628-0.0239 0.1872 0.0513 0.28753 0.21513 0.28702 0.11099 0.48692 0.1623 0.87097 0.0188 0.14072 0.0219 0.28981 0.0533 0.40538 0.10948 0.40259 0.10922 1.7346 0.18669 2.3028 0.0201 0.14732 0.0607 0.2479 0.0693 0.38811 6e-3 0.0983-0.0137 0.14757 0.0648 0.17018 0.0701 0 0.0762-0.11201 0.079-0.1717 5e-3 -0.10897 0.0251-0.15342 0.031-0.24105l0.10109-2.0353c0.0401-0.24994 0.0721-0.7046 0.10058-0.94691 0.0249-0.21361-0.0307-0.31039 0.0531-0.48209 0.0998 0.0023 0.12395 0.04902 0.12751 0.15367 0.0244 0.69571 0.0155 1.3805 0.0152 2.0764l0.0157 0.85801c-7.6e-4 0.12421 0.017 0.1712 0.0165 0.29108-5e-4 0.09754-5e-4 0.19482-7.6e-4 0.29235-1e-3 0.22733 0.0373 0.63373 0.048 0.85725l0.0312 0.5494c1e-3 0.1745 0.0404 0.381 0.048 0.54864 0.0173 0.38862 0.0325 0.74905 0.0317 1.1666-5.1e-4 0.19456 0.016 0.3556 0.016 0.56617 0 0.19736-6e-3 0.40488-5.1e-4 0.60096l0.0163 0.58268c0 0.2225 9e-3 0.37008 0.0475 0.54889h0.0318c0.0914-0.42469 0.0742-0.55677 0.095-0.9779 4e-3 -0.0889 0.0168-0.14326 0.0157-0.2573-2e-3 -0.21641 0.0411-0.52857 0.081-0.73584 0.015-0.07747 0.0112-0.15951 0.0231-0.24943 0.0335-0.25171 0.0549-0.49428 0.0546-0.76429-2.6e-4 -0.19507 0.016-0.33071 0.016-0.53188 0-1.3574 0.0539-2.7031 0.0475-4.0658-2e-3 -0.2794 0.049-0.18466 0.14249-0.39472 0.0305-0.06833 0.0427-0.12954 0.127-0.13716 0.077 0.17323 0.0358 0.44018 0.0541 0.65557 4e-3 0.04445 0.01 0.12852 9e-3 0.2192-5.1e-4 0.16586 5.1e-4 0.33198-2.5e-4 0.49784-7.6e-4 0.1651 0.0244 0.32842 0.032 0.48006 4e-3 0.07772-4e-3 0.16281-2.5e-4 0.24028 0.0203 0.40538 0.0391 0.3523 0.0836 0.68148 7e-3 0.05309 0.0302 0.13386 0.0439 0.19279 0.0345 0.1491-8e-3 0.18009 0.065 0.44425 0.0155 0.05588 0.0241 0.16027 0.0455 0.20828 0.1209-0.09601 0.0955-0.90322 0.095-1.0638l0.0724-1.4826c9e-3 -0.07061 6e-3 -0.11176 0.0203-0.16688 0.0391-0.15138 0.0376-0.34061 0.0648-0.47879 0.0597-0.30632 0.0358-1.1217 0.0655-1.5077l0.03-0.94539c-1e-3 -0.10998-0.0135-0.10871 0.0485-0.15342 0.0427 0.03378 0.0244 0 0.0417 0.07493 0.0665 0.2855-0.01 0.5969 0.0262 0.88113 0.0439 0.34773 0.0117 1.1087 0.0114 1.5316l0.0318 1.2522c-5.1e-4 0.11328 0.0114 0.16866 0.016 0.2573 4e-3 0.08331-3e-3 0.17399-5.1e-4 0.25806l0.0823 0.94031c0.0241 0.14834 0.0452 0.31648 0.0447 0.46634-5.1e-4 0.10643 0.017 0.13259 0.0168 0.23927l0.0147 0.7559c1e-3 0.09906 0.0173 0.12929 0.017 0.23901-2e-3 0.38151-4e-3 0.66954 0.063 0.97815 0.0561-0.01626 0.0414-0.01168 0.0584-0.07391 0.0663-0.24028 0.0518-0.52248 0.0693-0.76581 5e-3 -0.06426 0.0137-0.05969 0.0155-0.13767 5e-3 -0.18567 9e-3 -0.34214 0.0399-0.52299 0.0876-0.51359 0.10236-1.0546 0.10236-1.5875 0-0.25273 9e-3 -0.70942 0.034-0.95809l0.0635-0.65176c0.0173-0.14453 0.0605-0.3462 0.0617-0.49962 3e-3 -0.34544 0.0325-0.75387 0.0312-1.0986l-5e-4 -1.699c2.5e-4 -0.11201 0.0195-0.15418 0.017-0.27457-3e-3 -0.12776-0.0254-0.13056 0.0312-0.22225 0.0579 0.01676 0.0333 0.01803 0.0792 0.05156 0 0.31369 0.0333 0.3622 0.0315 0.61773l0.0297 0.62001c0.0244 0.23571 0.01 0.58115 0.0757 0.79299 0.0368 0.11913 0.0521 0.24232 0.0719 0.3683 0.0325 0.20523 2e-3 0.62281 0.0767 0.79197h0.0793c0.0599-0.09677 0.0543-0.27661 0.064-0.39421 0.0198-0.24359 0.016-0.6002 0.0973-0.82118 0.0536-0.14554-8e-3 -0.27178 0.045-0.38024 0.31115 0.02794 0.22225-0.05512 0.27635-0.28423 0.0363-0.15392 0.0945-0.10135 0.143-0.46279 0.0175-0.13056 0.0137-0.27203 0.0564-0.36805 0.13386 0.01219 0.0848 0.13106 0.1623 0.20193 0.0724 0.06629 0.14986 0.05766 0.15571 0.20879 2e-3 0.06045-5e-3 0.12802 0 0.18872l0.0312 0.53213c7.6e-4 0.14046 0.0251 0.59487 0.0579 0.69215 0.0399 0.11862 0.0958 0.08052 0.10008 0.26924 3e-3 0.127 0.0302 0.21565 0.127 0.24003 0.049-0.05029 0.0592-0.07087 0.0637-0.1712 4e-3 -0.09119 0.0163-0.12014 0.0157-0.22301-2.6e-4 -0.08001-2e-3 -0.16154-1e-3 -0.2413 1e-3 -0.09906 0.0173-0.12929 0.017-0.23901-1e-3 -0.34011 0.0269-0.60757 0.0968-0.873l0.0767-0.39726c5e-3 -0.07747-5e-3 -0.15748 4e-3 -0.23546 8e-3 -0.06782 0.0277-0.13868 0.0285-0.22682 3e-3 -0.2667 4e-3 -0.51714 0.0526-0.78359 0.0142-0.07823-1e-3 -0.05791 0.0419-0.09195 0.0747 0.3462 0.0485 0.83998 0.0475 1.2179-5e-4 0.16027 0.0163 0.25121 0.016 0.41148-5.1e-4 0.28016 0 0.56058 0 0.84074 0 0.3015 0.017 0.55143 0.016 0.84049-5.1e-4 0.15342 0.0168 0.238 0.0157 0.39472-3e-3 0.50902 0.15849 0.91211 0.175 1.509 2e-3 0.0668-5.1e-4 0.13919-1e-3 0.20676-5.1e-4 0.09957 0.0124 0.12573 0.0162 0.20549 7e-3 0.14757-0.0511 0.67767 0.0793 0.77191 0.0546-0.03962 0.0696-0.09017 0.0772-0.17374l0.13385-1.2103c0.0211-0.15164 0.01-0.34823 0.031-0.51537 0.0185-0.14605 0.0277-0.32715 0.0274-0.50216l0.0152-0.78969c2.6e-4 -0.10846 0.0173-0.14249 0.0168-0.25629-5.1e-4 -0.09068-3e-3 -0.18542-1e-3 -0.27559 3e-3 -0.11684 0.0302-0.13868 0.0483-0.22225 0.2093 0 0.15951 0.23063 0.15799 0.35941-3e-3 0.20447 0.0165 0.35484 0.0165 0.56693 0 0.48235-0.0109 0.91008 0.0361 1.3797 6e-3 0.05715 8e-3 0.14173 0.0109 0.25044 4e-3 0.16231 0.0401 0.36525 0.048 0.53111 0.0345 0.7079 0.049 1.5471 0.0475 2.2644-2.5e-4 0.16993 0.0125 0.37744 0.0325 0.53086 0.0559 0.42799 0.0996 0.88138 0.10998 1.3221 2e-3 0.09068 0.0127 0.16256 0.0155 0.27483l0.0437 0.82779c0.0132 0.07239 0.0292 0.18364 0.0521 0.2352 0.14021-0.1016 0.0955-0.73635 0.095-0.92634-2.6e-4 -0.10439 5e-3 -0.16332 0.0135-0.24257 0.0236-0.22733-0.0229-0.51816 0.0658-0.71806 0.0714 0.05664 0.0856 0.20447 0.0942 0.3269 0.0406 0.56871 0.0178 1.1445 0.0168 1.7145l0.0223 0.83337c8e-3 0.06121 0.0178 0.15113 0.0224 0.19888 7e-3 0.07391-0.0117 0.14122 0.0503 0.1684 0.0536-0.1209 0.0846-0.57836 0.0942-0.70434 0.0302-0.39319 6e-3 -0.76302 0.0523-1.1443 0.0447-0.36678 0.1049-0.73609 0.12293-1.1021l0.016-0.37719c-1e-3 -0.14072 0.0157-0.23876 0.0157-0.39472 0-0.21539-0.0165-1 0.0549-1.1587 0.019-0.04242 0.0503-0.08382 0.0731-0.12649l0.062-0.13868c0.11126-0.18999 0.1011 0.07976 0.14224-0.4638 0.0183-0.24105 0.0178-0.73355 0.0165-0.99441-7.6e-4 -0.14122 0.016-0.238 0.016-0.39421-2.6e-4 -0.38049-0.0175-0.83363 0.0272-1.1885l0.0203-0.38989c4e-3 -0.1336 0.0211-0.24105 0.0386-0.37008 0.0681-0.49809 0.0889-0.96622 0.0884-1.4999-2.5e-4 -0.15164 0.0168-0.23901 0.016-0.37719-7.7e-4 -0.13462-4e-3 -0.27889-7.7e-4 -0.4125 2e-3 -0.07772 0.0178-0.10668 0.0178-0.18821 0-0.14249-0.031-0.22377 5e-3 -0.37109 0.0165-0.06833 0.031-0.09246 0.0892-0.10922 0.12649 0.10008 0.0635 0.78892 0.11024 0.97866 0.0211 0.0856 0.0363 0.11887 0.0488 0.22174 0.0132 0.10871 0.0394 0.11735 0.0653 0.20371 0.0414 0.13792 0.0269 0.3015 0.0978 0.44298 0.0841 0.16789 0.12218 0.19761 0.12218 0.41656 0 0.18313-5.1e-4 0.36652-5.1e-4 0.54966l0.0168 0.53086c0.0211 0.27432 0.0295 1.0417 0.0305 1.3571l0.0564 0.72746c0.0264 0.1745 0.0528 0.30963 0.0721 0.48819 0.0493 0.45872 0.0274 1.3444 0.0579 1.5845 0.0109 0.08712-2e-3 0.17805 8e-3 0.26568 0.0109 0.09398 0.01 0.16281 0.0752 0.21006 0.0803-0.0635 0.0597-0.20803 0.0749-0.33071 0.0142-0.11532 0.0211-0.27229 0.0203-0.38989-1e-3 -0.14732 0.0117-0.24308 0.0155-0.39522 6e-3 -0.22758 0.12801-0.81559 0.12801-1.1311 0-0.27178 0.0328-0.54585 0.0315-0.8067l0.015-0.60122c0-0.09423 0.0127-0.11024 0.0165-0.18796 0.0137-0.2728 0.0157-0.50902 0.0549-0.78156 8e-3 -0.05486 4e-3 -0.14884 4e-3 -0.17678 2.5e-4 -0.0541 4e-3 -0.12852 0.0114-0.1839 0.0259-0.1905-0.0165-0.73482 0.0386-0.90195 0.0168-0.05131 0.0432-0.1176 0.0975-0.1176 0.12726 0.03683 0.111 0.25476 0.111 0.42901l0.0155 0.8067c-5.1e-4 0.11379 0.0168 0.14783 0.0168 0.25629 2.5e-4 0.25984 0.0137 0.55042 0.046 0.7907l0.0709 0.47244c0.0495 0.24714 0.0536 0.51994 0.0564 0.77953 1e-3 0.10135 0.0173 0.14021 0.016 0.25705-1e-3 0.111-1e-3 0.18212 0.0798 0.20549 0.10922-0.08661 0.0853-0.57175 0.0935-0.68809 5e-3 -0.06782 5.1e-4 -0.13665 1e-3 -0.20472l0.0592-0.77648c0.0109-0.06909 0.0208-0.1082 0.0302-0.17297 0.0104-0.07163 9e-3 -0.12319 0.0206-0.18339 0.0267-0.1397 0.0292-0.25654 0.0328-0.39345 2e-3 -0.08636 0.016-0.095 0.017-0.18745 2e-3 -0.159-0.0269-0.28981 0.0627-0.36093 0.15265 0.01372 0.15951 0.24714 0.15875 0.42875-1e-3 0.20574 0 0.41199 0 0.61773 0 0.22327 0.016 0.38887 0.016 0.60046 0 0.20574 1e-3 0.41173 0 0.61747-5.1e-4 0.12573 0.0163 0.17882 0.0165 0.29108 0 0.10185-4e-3 0.20879-1e-3 0.30988 3e-3 0.09931 0.0173 0.16713 0.0163 0.29108-2e-3 0.2888 0.0419 0.5776 0.0627 0.85852l0.033 0.58166c2.5e-4 0.21742 0.0132 0.36678 0.034 0.56363 0.0257 0.24409 0.029 1.4981 0.029 1.8214 0 0.82118-0.0109 1.6581 0.0475 2.4188 0.0919-0.02667 0.0663-0.18415 0.0831-0.28626 8e-3 -0.04877 0.0246-0.10643 0.0371-0.16688 0.0297-0.14351 0.0254-0.17628 0.0815-0.32334 0.095-0.24943 0.0838-1.065 0.0836-1.3678 0-0.15621 0.0168-0.25324 0.016-0.39421l-2.5e-4 -1.2525c0-0.55575 0.0338-1.1054 0.0315-1.6472-1e-3 -0.21819 0.0701-0.30912 0.11354-0.49479 0.0325-0.13818 0.0244-0.0602 0.11583-0.09779 0.18796-0.07696 0.12903-1.0726 0.13512-1.2949 2e-3 -0.08788 0.0168-0.10541 0.017-0.20472 0-0.13233-7e-3 -0.28245-5.1e-4 -0.4125 7e-3 -0.14681 0.0541-0.79731 0.0831-0.93955 0.01-0.04724 0.034-0.13386 0.0401-0.17958l0.0671-1.5913c0-0.06883-5.1e-4 -0.13767-5.1e-4 -0.2065 0-0.09423 0.0127-0.11024 0.0165-0.18796 0.0173-0.34671-2e-3 -0.66827 0.0356-1.0081 0.01-0.08941-5.1e-4 -0.11481 0.0597-0.1585 0 0.18542 0.0272 0.40488 0.0323 0.58268l0.0874 3.4564c0.0203 0.11506 0.031 0.24968 0.0543 0.35281 0.0541 0.23851 0.081 0.49911 0.0795 0.75438-2e-3 0.25044 0.0338 0.55804 0.0323 0.80569-2e-3 0.18593 0.0163 0.23419 0.0473 0.3777 0.0861-0.06833 0.10058-0.4318 0.12217-0.55397 0.016-0.09144 0.0373-0.11405 0.0523-0.18339 0.0968 0.02794 0.096 0.1745 0.0955 0.27432-7.6e-4 0.13589 0.0259 0.22479 0.0315 0.34341 0.0109 0.22327 0.0284 0.50952 0.0213 0.70688-2e-3 0.06502 0.0104 0.21742 0.01 0.33985-7.7e-4 0.18161 0.0366 0.5367 0.049 0.71882 8e-3 0.11024 0.0185 0.23851 0.14148 0.2413 0.0137-0.05537 0.0117-0.02642 0.0287-0.07188 0.0127-0.03404 0.0142-0.03759 0.0231-0.07798 0.0381-0.17551 0.0584-0.79019 0.0587-1.0173 0-0.09423 0.0124-0.11049 0.0165-0.18821 4e-3 -0.07061-7.7e-4 -0.15189-5.1e-4 -0.22377 0-0.09423 0.0127-0.11024 0.0165-0.18796 4e-3 -0.07137-2e-3 -0.15138-7.6e-4 -0.22377l0.0317-0.82321c5e-4 -0.38456 0.11252-0.78664 0.1115-1.1661-7.6e-4 -0.23851 0.0643-0.53823 0.0384-0.79629-0.0132-0.13157 0.0556-0.22403 0.0886-0.31852 0.0206-0.05867 0.015-0.09449 0.0401-0.16231 0.10465-0.28219 0.0881-0.82448 0.13488-0.93497 0.0157-0.03759 0.016-0.016 0.0333-0.0668 0.0467-0.13716 0.078-0.52934 0.0772-0.67132-7.6e-4 -0.13081-9e-3 -0.30353-7.6e-4 -0.42977 0.0122-0.18898 0.18592-0.09042 0.20396 0.0036 0.033 0.17297-3e-3 0.44679 2e-3 0.63221 3e-3 0.08788 0.017 0.10541 0.017 0.20472 7.6e-4 0.55143 0.0412 1.0564 0.11913 1.5865 0.0206 0.14097 0.0399 0.22733 0.0386 0.3871l0.0185 0.40894c0.0406 0.39268-7e-3 0.86208 0.0135 1.272 5e-3 0.1016 7e-3 0.30251 0.0478 0.39446 0.13818-0.03988 0.0914-0.27457 0.14859-0.40513 0.0442-0.10058 0.0998-0.10008 0.1049-0.24663 4e-3 -0.12014 8e-3 -0.3175 0.0249-0.43612 0.0241-0.17196 5e-3 -1.1709 0.0249-1.3627l0.0297-0.43104c1e-3 -0.10998 6e-3 -0.34925 0.0587-0.41681 0.0386-0.04978 0.065-0.07239 0.11811-0.0955 0.0881-0.03835 0.0706-0.02489 0.10312-0.12878 0.0396-0.12776 0.0813-0.20523 0.0856-0.37059 0.01-0.38837 5e-3 -0.74244 0.0749-1.0856 0.0145-0.07163 0.0206-0.13919 0.0335-0.20396 0.0244-0.12217 0.0744-0.24257 0.0693-0.3683-6e-3 -0.15316 0.0285-0.25502 0.0279-0.41859-7.6e-4 -0.23622-3e-3 -0.22377 0.0475-0.42901 0.14732 0.04267 0.0884 0.50419 0.095 0.63475 4e-3 0.07722 0.0165 0.06426 0.0145 0.13691-0.0117 0.46355-0.0124 1.1643 0.0307 1.5984 5e-3 0.05029-2.6e-4 0.09906 5e-3 0.14961 8e-3 0.08052 0.0363 0.18618 0.0434 0.26187 0.013 0.14173-9e-3 0.14656 0.0419 0.26365 0.0881 0.20422 0.0754 0.58217 0.0871 0.81509 5e-3 0.09754 0.0155 0.16891 0.0155 0.2921-2.5e-4 0.11201 0.0287 0.16612 0.048 0.25679 0.13081-0.01168 0.12217-0.23698 0.127-0.34315 8e-3 -0.16485 0.0114-0.31674 0.0305-0.46457 0.0203-0.16002 0.0754-0.21082 0.0805-0.39319 4e-3 -0.13183 0.0485-0.16154 0.0864-0.2667 9e-3 -0.02489 0.0259-0.08331 0.0345-0.09982 0.0648-0.12624 0.28626 0.07925 0.29159-0.40513l0.0584-0.67462c0.0272-0.19329-5.1e-4 -0.26949 0.0843-0.4064 0.10668 0 0.23241 0.04547 0.26187 0.12852 0.0236 0.06579 0.0343 0.62357 0.0569 0.76175 0.0198 0.11963 0.0467 0.19888 0.066 0.34036 0.0244 0.17729 0.0592 0.35941 0.0594 0.55321 0 0.06883-5e-4 0.13792-1e-3 0.20676-5.1e-4 0.10312 0.0155 0.29286 0.0289 0.38049 0.0259 0.16942 0.0897 0.14453 0.19355 0.21946 0 0.12598 7e-3 0.20879 0.015 0.30963 8e-3 0.10846-6e-3 0.23266 2e-3 0.34138 8e-3 0.10389 0.0274 0.18948 0.031 0.30963 3e-3 0.10185 0.0262 0.21031 0.0312 0.30937 0.0112 0.22327 0.0808 0.77089 0.08 0.92558l0.0157 1.6815c-2.5e-4 0.13462 0.0163 0.20955 0.0165 0.32537 2.5e-4 0.2446-0.0312 0.80188 0.047 0.97841 0.0358-0.01422 0.0251-0.0023 0.0409-0.04166 0.0231-0.05842 0.0325-0.19101 0.0523-0.25222 0.0432-0.13437 0.0317-0.1811 0.0556-0.33452 0.0239-0.15418 0.0899-0.11328 0.0897-0.29743 0-0.14808 0.0302-0.24155 0.0318-0.37719 4e-3 -0.31826 0.0145-0.85369 0.0447-1.1527 7e-3 -0.06807-2e-3 -0.12827 8e-3 -0.1971 0.0119-0.08103 0.0289-0.10109 0.0419-0.16078h0.0635c0.0145 0.05867 0.0307 0.05156 0.0505 0.11659 0.0406 0.13259-0.0142 0.36093 0.10795 0.44933 0.0775-0.06147 0.078-0.23622 0.0787-0.3777l0.0163-0.44577c-5.1e-4 -0.09601 8e-3 -0.13995 0.0142-0.20879 0.01-0.1049-0.0239-0.09779-8e-3 -0.21209 0.0404-0.29261-0.0112-0.89408 0.0506-1.3531 0.0188-0.13894 0.0122-0.31039 0.0338-0.42672 0.0724-0.39091 0.0371-0.5207 0.0797-0.85725l0.0361-1.3678c0-0.37694 3e-3 -0.76657 0.031-1.1331 6e-3 -0.07645-4e-3 -0.16205 2e-3 -0.23851l0.0251-0.33299c0.0173-0.0856-0.014-0.03886 0.0376-0.0795 0.0366 0.16967 0.062 0.40183 0.064 0.58268 3e-3 0.25679 0.0295 1.2591 0.10211 1.4336 0.0986 0.23673 0.0704 0.5268 0.11456 0.7681 0.0254 0.13894 0.0729 0.21209 0.10007 0.33782 0.23419 0 0.19736 0.21869 0.23343 0.41631 0.0264 0.14376 0.0666 0.72898 0.0681 0.88621 3e-3 0.28829 0.0312 0.46126 0.0312 0.61874 0 0.12573 9e-3 0.20599 0.0795 0.2573 0.0836-0.02108 0.11405-0.07468 0.12675-0.1717 0.0605-0.46482 0.0828-0.6543 0.0947-1.1499l0.0483-0.5654c7.6e-4 -0.16535 0.0251-0.14021 0.0564-0.26492 0.0155-0.06223 0.0127-0.1999 0.0269-0.27965 0.013-0.0729 0.0325-0.1778 0.0411-0.26441 0.016-0.16231 6e-3 -0.4638 0.0683-0.56109 0.0434-0.06833 0.10922-0.07849 0.12268-0.17602 8e-3 -0.05918 6e-3 -0.08661 0.0157-0.13741 0.01-0.05232 0.0211-0.09728 0.0297-0.13945 0.0381-0.18771 0.0264-0.37922 0.0988-0.52781l0.32944 0.1237c0.0485 0.03632 0.0612 0.09271 0.066 0.16891 0.0173 0.27584 0.0645 0.2794 0.0645 0.68529 0 0.143-0.0208 0.33579 0.0475 0.44602 0.29033-0.02616 0.29439-0.66015 0.31725-0.87478 0.0193-0.18212 0.0163-0.3777 0.0155-0.58369-7.6e-4 -0.18059 0.048-0.46457 0.048-0.56566 0.0673-0.01702 0.19355-0.08814 0.24892-0.0475 0.0617 0.04521 0.0447 0.19761 0.0569 0.29997 0.0251 0.20777 2.5e-4 0.47574 0.0114 0.70841 7e-3 0.15519 0.0541 0.44679 0.12623 0.58395 0.0691 0.13183 0.0221 0.28346 0.0897 0.43485 0.0318 0.07137 0.0267 0.06248 0.0856 0.09601 0.15393-0.24867 0.0292-0.60528 0.16307-1.0246 0.0404-0.127 0.11303-0.4511 0.0978-0.5776-0.0117-0.09677-7e-3 -0.1938 0.0607-0.26289l0.0257-0.02388c0.0823-0.08255 0.12878-0.27254 0.19203-0.27254 0.17703 0.05131 0.0592 0.46507 0.19329 0.59766 0.17653 0.1745 0.27635-0.29642 0.28219-0.42621 6e-3 -0.13564 0.0523-0.18898 0.08-0.3081l0.0772-0.32817c0.0206-0.11786 0.0104-0.24232 0.0363-0.35535 0.0178-0.07747 0.0112-0.28854 0.0922-0.31191 0.0142 0.03226 0.0363 0.20447 0.048 0.25705 0.0145 0.06452 0.0315 0.19558 0.0317 0.27432 1e-3 0.16002 0.0112 0.42672 0.0508 0.57988 0.0211 0.08179 0.0554 0.11151 0.0772 0.2253 0.0178 0.09271 0.0411 0.17069 0.0625 0.25832 0.0678 0.27813-0.0762 0.32664 0.28473 0.32664 0.0389 0.06274 0.0406 0.02692 0.0574 0.12649 0.0104 0.06223 0.0132 0.11049 0.0216 0.16535 0.0323 0.2093 0.0485 0.49047 0.0478 0.72034-5.1e-4 0.15824-0.0274 0.26035 0.0633 0.32588 0.37211-0.26949 0.18542-0.79959 0.36474-1.1666 0.0699 0.0018 0.0795 2e-3 0.10668 0.05639 0.0378 0.0762 8e-3 0.05842 0.0678 0.11532 0.14021-0.03531 0.11658-0.28042 0.12928-0.40919 0.0163-0.16637 0.0229-0.56744 0.10567-0.70917 0.10871-0.18618 0.0411-0.51384 0.14579-0.68301h0.0793c0.10871 0.17526 0.0541 0.48692 0.17933 0.6637 0.0968 0.13665 0.0112 0.42596 0.20599 0.3876 0.0932-0.01829 0.0663-0.05283 0.13818-0.07366 0.11582 0.08382 0.0818 0.21615 0.10871 0.37998 0.0127 0.07849 0.0485 0.40411 0.0658 0.44348 0.0577 0.02997 0.0998 0.02642 0.14097-0.0188 0.05-0.05537 0.0305-0.08509 0.0541-0.16485 0.0493-0.16688 0.0602-0.0574 0.0876-0.33401 8e-3 -0.08407 7e-3 -0.10592 0.0223-0.18161 0.0104-0.0508 0.0318-0.13005 0.0401-0.18085 0.0302-0.1844-0.0264-0.15596 0.1458-0.23546 0.12166-0.05613 0.17246-0.04597 0.19177-0.22149 0.0239-0.21742 0.0739-0.16408 0.13131-0.28677 0.0574-0.12294-0.0165-0.24486 0.0955-0.32563 0.0874-0.06299 0.1176-0.04623 0.15976-0.15316 0.016-0.04089 0.0224-0.04674 0.0406-0.0762h0.0793c0.0262 0.04216 0.0267 0.03937 0.0452 0.08839 0.0338 0.08915 0.0673 0.13995 0.16917 0.111 0.29997-0.08534 0.13563-0.33198 0.29311-0.45669v-1.1494c-0.015-0.01854-8e-3 -0.0056-0.0264-0.03988-0.0546-0.10389-0.0602-0.24206-0.0846-0.35458-0.1392-0.03505-0.23445-0.08103-0.36348 0.0018-0.0942 0.06071-0.078 0.03632-0.16535-0.01295-0.0503-0.02819-0.11379-0.03988-0.1491-0.07874-0.0577-0.06274-0.0414-0.27203-0.11227-0.37617-0.0422-0.06198-0.0635-0.05715-0.0805-0.15316-0.0284-0.16129-0.0518-0.21742-0.18135-0.30124-0.1204-0.07772-0.22835-0.31445-0.23241-0.48616-4e-3 -0.1585-0.049-0.26822-0.0729-0.41859-0.0183-0.11709-0.0107-0.19736-0.12497-0.22758-0.0693-0.01829-0.12852 0.01473-0.143 0.08915-7e-3 0.03378 6e-3 0.17018-0.017 0.30709-0.0282 0.16408 3e-3 0.2601-0.0861 0.40437-0.12751 0-0.0808-0.0193-0.16891-0.04242-0.1905-0.04978-0.13818 0.30505-0.20752 0.39014-0.094 0.11557-0.0988 0.14554-0.0993 0.32156-5e-4 0.14986-0.0274 0.23038-0.11125 0.29134-0.127-0.11938-0.13055-0.15723-0.11963-0.3998 6e-3 -0.13233-0.078-0.2827-0.10871-0.41681-0.0376-0.16231-0.0404-0.3114-0.0615-0.4826-0.0208-0.17018-4e-3 -0.3363-0.0749-0.4506-0.1491 0-0.0922 0.02108-0.18237 0.04496-0.19635 0.05232-0.1425-0.39599-0.15926-0.51613-0.0231-0.16332-0.0104-0.2606-0.0983-0.35687-0.0975-0.10668-0.0927-0.24359-0.19431-0.25273-0.0279 0.13005-0.032 0.17831-0.0318 0.34315 0 0.06172 2e-3 0.12802 5.1e-4 0.18923-2e-3 0.08458-0.0145 0.0856-0.017 0.17043-0.0125 0.45339-0.029 0.28067-0.063 0.60096-6e-3 0.0602-3e-3 0.09296-0.062 0.12268-0.0444 0.02235-0.11023-0.0097-0.16865 0.0041l-0.0602 0.03886c-5e-3 0.0066-0.0198 0.0447-0.0203 0.04674-8e-3 0.03378-8e-3 0.08484-0.013 0.12319-0.0295 0.24282-0.0704 0.23292-0.11709 0.42215-0.098 0.39548-0.065 0.71628-0.10643 0.96571-0.0165 0.09855-0.0394 0.12497-0.0551 0.19787-0.0605-0.03454-0.0422 0.0015-0.0711-0.07747-0.0183-0.04978-0.0191-0.07163-0.0244-0.12802-0.0244-0.24968-0.0305-0.54102-0.13208-0.76632-0.0574-0.127-0.066-0.35128-0.1115-0.49682-0.0457-0.14681-0.0531-0.35941-0.27915-0.19558 0 0.14529-0.0145 0.23292-0.0338 0.35814-0.015 0.09779-0.0183 0.21539-0.12472 0.24232-0.0828-0.0602-0.0424-0.12446-0.10083-0.21692-0.0373-0.05867-0.11278-0.0856-0.16891-0.12624 0-0.31725 0.0226-0.12675-0.0254-0.48717-0.0163-0.12167-4e-3 -0.12903-0.0404-0.23089-0.0511-0.14249-0.063-0.29591-0.0889-0.43561-0.032-0.17272 0.0135-0.57988-0.11506-0.68199-0.0704 0.05105-0.0706 0.1331-0.0922 0.22631-0.0221 0.095-0.0221 0.16612-0.0366 0.26924-0.0125 0.08763-0.0678 0.14681-0.0952 0.22301-0.0234 0.06502-0.0345 0.18339-0.0427 0.26264-0.0279 0.27635-0.0213 0.63983-0.034 0.92405-6e-3 0.13335-0.0122 0.15875-0.0798 0.2225-0.0257-0.0066-0.21235-0.08712-0.22378-0.10084-0.048-0.05664-0.0302-0.20904-0.0297-0.31115l-0.0447-0.96368c-0.0132-0.11201-0.0244-0.17882-0.0356-0.28753-0.0206-0.20269-0.17551-0.24409-0.22123-0.42977-0.0975 0.0086-0.0727 0.07315-0.0864 0.18085-0.0305 0.23851-3e-3 0.50698-0.0264 0.74346-9e-3 0.09347-0.0676 0.2286-0.0658 0.3208 4e-3 0.21234-0.17576 0.21311-0.37642 0.21311-0.0828-0.1336-0.0285-0.09855-0.0513-0.27051l-0.10059-0.50876c-0.0394-0.12294-0.0673-0.08585-0.10947-0.19025-0.0864-0.21412-0.0587-0.28499-0.0716-0.55728-5e-3 -0.09373-0.0264-0.17348-0.0318-0.27432-6e-3 -0.1049-0.0216-0.18313-0.0439-0.26137l-0.0462-0.27584c-0.0432-0.31471-0.0368-0.56642-0.066-0.85496-0.0201-0.19914-0.0124-0.38252-0.0389-0.57531-0.0198-0.14453 9e-3 -0.41707-0.18542-0.41707-0.0909 0.14681-0.0457 0.12471-0.0658 0.32334-0.01 0.09601-0.0297 0.23774-0.03 0.34493-5.1e-4 0.33249-0.0147 0.75286-0.0696 1.0739-0.018 0.1049-0.014 0.24003-0.0541 0.31902-0.063 0.12395-0.15849 0.08788-0.21386 0.14605-0.0498 0.05232-0.0422 0.22428-0.0597 0.31267-0.0584 0.29439 9e-3 0.3048-0.13996 0.80924-0.0549 0.18567-0.0386 0.51511-0.0488 0.71907-4e-3 0.0762-0.0155 0.0823-0.0165 0.17069-7.6e-4 0.06248 3e-3 0.12776 1e-3 0.18999l-0.0797 0.85725c-0.0564-0.0447-0.0307-0.08712-0.0429-0.1938-9e-3 -0.07645-0.0193-0.15037-0.0211-0.21742-0.0168-0.61697-0.0163-1.2367-0.047-1.8532-7e-3 -0.14478 0.0122-0.32055-2e-3 -0.46076l-0.0289-0.68936c2.5e-4 -0.14554-0.0239-0.29566-0.0315-0.42901-7e-3 -0.12649-0.017-0.09449-0.0373-0.19964-0.0295-0.15189-0.0744-1.1267-0.0744-1.3434l-0.0162-0.46304c6e-3 -0.111 0.0201-0.09449 5e-3 -0.21057-0.0373-0.28372 0.0335-0.53111-0.0838-1.0762-0.0742 0.02134-0.0579 0.06883-0.0726 0.16154l-0.0604 0.39776c-0.0145 0.07899-0.0216 0.1077-0.10465 0.10973-0.0142-0.06553-0.0259-0.09373-0.0315-0.1717-6e-3 -0.08458-0.0142-0.1016-0.0259-0.1778-0.0475-0.30632-8e-3 -0.84861-0.0401-1.1575-0.0112-0.10871-0.0211-0.26518-0.0295-0.37998-9e-3 -0.12268-0.0625-0.19279-0.0767-0.31166-0.017-0.14173-0.0513-0.1811-0.0731-0.31547-0.0206-0.12675-0.0102-0.24282-0.0881-0.29921-0.0531 0.11989-0.0475 0.43078-0.0475 0.61747 0 0.10871-2.5e-4 0.21742 2.6e-4 0.32614 5e-4 0.12776-0.017 0.18034-0.0163 0.30836 2e-3 0.2634 0.0213 1.1146-4e-3 1.3165-0.0234 0.18415-9e-3 0.43358-0.032 0.63449l-0.0579 0.58928c-0.0145 0.21514-0.0302 0.38481-0.0513 0.59639-0.018 0.18212-0.0175 0.42697-0.0302 0.61925-8e-3 0.11633-8e-3 0.1778-0.094 0.24155-0.18542 0.13767-0.10618 0.60528-0.12929 0.83795-9e-3 0.09347-0.0211 0.1966-0.0338 0.30658-0.0112 0.09677-0.0371 0.18415-0.0551 0.26619-0.0597 0.27102-0.0833 0.62662-0.0825 0.90576 2.5e-4 0.12014-0.0223 0.18009-0.10998 0.20701-0.30048 0.09144-0.19558-0.15113-0.238-0.36347-0.0201-0.10008-0.0117-0.18898-0.0264-0.29718-0.0145-0.10541-0.0132-0.19304-0.0277-0.29616-0.0132-0.09525-8e-3 -0.18694-0.0366-0.28626-0.0373-0.12929-0.0376-0.11862-0.0376-0.28524-0.18059-0.04547-0.29515 0.03683-0.33579-0.20396-0.0109-0.06452 0-0.12522-0.0132-0.22454-0.0142-0.1082-0.0411-0.11862-0.0643-0.20523-0.0175-0.06579-0.018-0.18923-0.0279-0.26137-0.0201-0.14554-0.0152-0.35154-0.0465-0.4986-0.0165-0.07722-0.017-0.16002-0.0991-0.16739-8e-3 0.11074-0.0566 0.27432-0.0516 0.3876 3e-3 0.0701 4e-3 0.06833-5e-3 0.13411-0.0297 0.2126 2.5e-4 0.64389-0.0696 0.83414-0.0368 0.10033-0.0503 0.08687-0.0714 0.23165l-0.0551 0.54077c-0.0277 0.37465-0.0168 0.79985-0.0168 1.1999 0 0.21539-0.016 0.37694-0.016 0.60046 0 0.09957 5e-3 0.21107 2.6e-4 0.30912-4e-3 0.08052-4e-3 0.1839-0.0795 0.20574-0.0818-0.06477-0.064-0.2601-0.0633-0.41199 1e-3 -0.1811-0.0262-0.46558-0.0503-0.64922-5e-3 -0.04039-8e-3 -0.05182-0.0157-0.10109l-0.0127-0.06147c-0.0574-0.1618-0.0853-0.40742-0.1077-0.58191l-0.0201-0.45872c2.5e-4 -0.07442 2e-3 -0.14986 1e-3 -0.22403-5e-4 -0.04648-0.045-0.37287-0.0564-0.40234-0.0386-0.10008-0.18542-0.07341-0.24943-0.19329-0.0902-0.16891-0.0539-0.63094-0.0848-0.85192-0.0201-0.14427-7e-3 -0.30709-7e-3 -0.45593 0-0.17323-0.0163-0.27788-0.016-0.44602 3e-3 -1.3002-0.10719-0.92989-0.14351-1.2344-0.0102-0.08484-0.065-0.27838-0.12599-0.3269-0.0579 0.04572-0.063 0.29083-0.064 0.37668l1e-3 1.082c-2.5e-4 0.09423-0.0127 0.11024-0.0165 0.18796-4e-3 0.07137 2e-3 0.15138 7.7e-4 0.22377-2e-3 0.20422-0.0478 0.58445-0.0843 0.78359l-0.0506 0.37414c-0.0508 0.3335-7e-3 0.68885-0.0427 1.0348-0.0241 0.2319-0.0175 0.58293-0.029 0.82626-9e-3 0.19279-0.16687 0.16129-0.18796 0.04826-0.0137-0.07341-3e-3 -0.33401-3e-3 -0.42596 5.1e-4 -0.15291-0.0168-0.26822-0.0295-0.397-0.0191-0.1938 0.0114-0.21006-0.0673-0.35611-0.0488-0.09042-0.0236-0.06299-0.0312-0.18898-3e-3 -0.05334-0.0203-0.14859-0.0259-0.19482l-0.0681-0.5781c-0.0107-0.29464-0.16205 0.0955-0.15824-0.90957 5e-4 -0.13665-0.0264-0.26924-0.032-0.39446-0.0155-0.35154-0.11252-0.92608-0.1115-1.1831 2e-3 -0.48666-0.0653-1.175-0.0635-1.6467 1e-3 -0.23571-0.01-0.60401-0.0353-0.81966-0.017-0.14427-0.062-0.21184-0.0912-0.3302-0.0574 0.03277-0.0551 0.0254-0.0859 0.09601-0.0226 0.05207-0.0315 0.08966-0.0389 0.14656l-0.0498 0.70079c-6e-3 0.11379 7.6e-4 0.24511 7.6e-4 0.36093l-0.0165 0.35992c-4e-3 0.0762-0.0155 0.0823-0.0165 0.17069-7.6e-4 0.06248 3e-3 0.12776 1e-3 0.18999-3e-3 0.10465-0.0267 0.23978-0.0317 0.34315-6e-3 0.1237-8e-3 0.222-0.0797 0.27381-0.0457-0.03632-0.0564-0.10973-0.0638-0.18821-0.0107-0.11176-0.0579-0.52934-0.12649-0.58369-0.0599 0.12217-0.0635 0.63602-0.0635 0.78918l-0.0165 0.41123c-2.5e-4 0.17805-0.0109 0.26111-0.0269 0.3998-0.018 0.1557-4e-3 0.24867-0.0523 0.37236-0.0229 0.05817-0.0384 0.0983-0.0452 0.17399-0.0417 0.46279-0.0813 1.3104-0.0813 1.7821l-0.0381 2.272c-6e-3 0.07874 0.0117 0.1049-0.0411 0.14681-0.0495-0.23038-0.0287-0.53619-0.0592-0.77648-0.0175-0.13843 6e-3 -0.28321-5e-3 -0.42342l-0.0472-1.2012c-4e-3 -0.15037-0.0119-0.25908-0.0152-0.39522-2e-3 -0.08712-0.0155-0.095-0.0163-0.18821-2e-3 -0.20066-0.0318-0.3617-0.0676-0.56159-0.0193-0.10693-0.0193-0.24638-0.0366-0.37236-0.0353-0.25832-0.01-0.54305-0.0224-0.79908-4e-3 -0.07976-0.0168-0.10592-0.0163-0.20549 1e-3 -0.32817 0.0216-0.67513-0.0287-0.99822-0.0173-0.11125-0.0414-0.22022-0.0861-0.31852-0.0602-0.13157-0.14326-0.04674-0.20041-0.21184-0.0269-0.07772-0.0478-0.25476-0.049-0.35865-2e-3 -0.13564-0.0158-0.25349-0.0158-0.41173l-0.0155-2.4534c7.6e-4 -0.14122-0.0163-0.238-0.016-0.39446l-0.0325-1.1486c-0.0112-0.17577-0.1336-0.43764-0.16078-0.64948l-0.0922-0.3462c-0.0259 0.33579-0.0333 0.45745-0.0318 0.80645 7.6e-4 0.14783-0.016 0.23724-0.016 0.39446 7.6e-4 0.67386 0.0333 1.3932 0 2.0587-4e-3 0.07976-0.0168 0.10592-0.0163 0.20549 1e-3 0.33122 3e-3 0.66802-0.0315 0.99543-0.0142 0.13487-8e-3 0.24587-0.0157 0.39472-5e-3 0.10592-0.0234 0.27356-0.0307 0.37821l-0.0797 1.5778c-2.6e-4 0.09423-0.0127 0.11024-0.0165 0.18796v0.61773c0 0.15621-0.0168 0.25324-0.016 0.39421 2e-3 0.27127 0.0264 0.97028-0.0196 1.2141-0.0104 0.0541-0.10084 0.28372-0.17349 0.16358-0.049-0.08153-0.0396-0.78283-0.0747-0.96749-0.0114-0.06096-0.0223-0.11506-0.0312-0.17196-0.0198-0.12446-0.0236-0.238-0.0366-0.37236l-0.0312-0.3777c-0.031-0.31039 7e-3 -0.64516-0.064-0.96012-0.0122-0.05436-0.034-0.10795-0.0447-0.15748h-0.0317c-0.0122 0.15773-0.0653 0.2098-0.0635 0.49733l-0.0196 0.52781-0.0823 0.47701c-0.0295 0.15443-0.0282 0.33172-0.05 0.49479-0.0127 0.09525 7.7e-4 0.18872-9e-3 0.28194-0.0264 0.25425-0.0305 0.53848-0.0292 0.79172 5.1e-4 0.11557-0.0155 0.1557-0.0168 0.25654-2e-3 0.21082 0.0559 0.61214-0.0945 0.72111-0.0947-0.02743-0.15087-0.16358-0.14275-0.2728 0.0236-0.31953-2.5e-4 -0.15977-5e-4 -0.37871l-0.0854-1.5545c-0.0338-0.24054-2e-3 -0.5461-0.0274-0.79375-0.0259-0.24892-0.016-0.52426-0.0292-0.79172l-0.079-0.73787c-0.0564-0.35433-0.0706-0.76632-0.079-1.1499-2e-3 -0.10693-0.0389-0.26289-0.0958-0.3081-0.0917 0.18771-0.0411 0.24003-0.0658 0.47777-0.0165 0.15977-0.014 0.349-0.0135 0.53442 2.5e-4 0.1872-0.016 0.33122-0.016 0.53188 2.6e-4 0.26441-0.0264 0.5047-0.0726 0.74498-0.0457 0.23851-0.0445 0.49352-0.0747 0.7427-0.0175 0.1463-9e-3 0.36982-0.0249 0.52197-0.0358 0.34544 0.015 0.73076-2e-3 1.0782-8e-3 0.16358-0.0325 0.33604-0.0317 0.5146 5e-4 0.18364 0.0307 0.63271-0.0366 0.7841-0.0302 0.06807-0.0665 0.11201-0.0887 0.17856-0.0503 0.1524-0.0551 0.27991-0.0899 0.45161-0.015 0.07366-0.0521 0.1336-0.0744 0.1938-0.0483 0.12929-0.0739 0.5903-0.0757 0.74168-1e-3 0.09017 5e-3 0.18669 1e-3 0.27584-4e-3 0.09931-0.0231 0.12979-0.08 0.17094-0.16179-0.04064-0.10439-0.1745-0.0958-0.32817 2e-3 -0.03937-5e-3 -0.08382-6e-3 -0.0955-0.031-0.22962-9e-3 -0.54356-9e-3 -0.77699 5e-4 -0.16434-0.016-0.26187-0.0157-0.42901 2.5e-4 -0.29769-4e-3 -0.59792-0.0363-0.86995-0.0158-0.13208-0.0239-0.27788-0.0452-0.41402-0.0165-0.1049-0.0427-0.28092-0.0455-0.397-3e-3 -0.12522-0.0135-0.3241-0.0272-0.43383-0.0249-0.1971-0.0175-1.1643-0.0196-1.3513-1e-3 -0.09728-0.017-0.11862-0.017-0.22174l1e-3 -0.67031c-2e-3 -0.12929-0.0274-0.29896-0.0323-0.4285-4e-3 -0.11811-0.01-0.27457-0.127-0.30861 3e-3 -0.14859 0.0183-0.13259-0.0907-0.22784-0.0696-0.06071-0.0846-0.13919-0.0838-0.26949 5.1e-4 -0.12675-0.016-0.20244-0.0157-0.34341l-0.0152-1.0643c-2e-3 -0.08458-0.0145-0.0856-0.017-0.17043-2e-3 -0.05537 4e-3 -0.11633-2.5e-4 -0.1712-7e-3 -0.09652-0.0307-0.22276-0.0312-0.32639-1e-3 -0.2286-0.0556-0.41631-0.0803-0.635-0.0175-0.15596-0.0175-0.44628-0.0419-0.63957l-0.0203-0.33833c-3e-3 -0.06096 3e-3 -0.12802 2.6e-4 -0.18898-4e-3 -0.07569-0.0145-0.07137-0.0165-0.15392-3e-3 -0.12675-0.0254-0.56312-0.0948-0.61798-0.0452 0.073152-0.0277 0.07112-0.0411 0.17856l-0.0386 0.8161c2e-3 0.4887 0.0267 1.4887-0.0203 1.8824l-0.0587 0.34798h-0.0475c-0.015-0.0696-0.0193-0.1778-0.0272-0.24486-0.0673-0.56566 0.0196-1.1402-0.0996-1.6934h-0.0317c-0.0754 0.35027-0.0531 0.69037-0.08 1.0455-5e-3 0.06579-0.0137 0.18948-0.0241 0.26543-0.0251 0.18161-4e-3 0.37008-0.0292 0.55169-0.0437 0.31902-0.12167 1.013-0.1204 1.3279l-0.0813 2.777c-0.0564 0.55931-0.0612 1.1092-0.0612 1.6838 0 0.09398 6e-3 0.19456-7e-3 0.28448-0.0315 0.22454 0.0371 0.45974 8e-3 0.52222-0.0236 0.0508-0.0968 0.09271-0.14376 0.11963-0.0673-0.04877-0.08-0.06807-0.0803-0.18771-5.1e-4 -0.43713-0.0323-0.8857-0.0307-1.3221l-0.0157-0.5146c-0.0165-0.33325-0.0579-0.64262-0.10897-0.96291l-0.05-0.49479c2.5e-4 -0.12192 3e-3 -0.14884-0.0213-0.25146-0.0193-0.08128-0.0439-0.13259-0.0574-0.19533-0.13031 0.03759-0.0942 0.6002-0.10872 0.74016-0.0135 0.1303 5e-3 0.2921-2e-3 0.42647-0.0122 0.24232-0.0231 0.524-0.0848 0.74879-0.078 0.28448-0.10668 0.84303-0.10541 1.1552 1e-3 0.29642-0.016 0.53848-0.016 0.84049 0 0.32461 0.01 2.3056-0.0635 2.4704-0.0587-0.02311-0.0625-0.10719-0.064-0.18796-2e-3 -0.0889 3e-3 -0.1463-9e-3 -0.23089-0.0107-0.07722-6e-3 -0.15316-6e-3 -0.23343-2.5e-4 -0.16231-0.0213-0.29286-0.0333-0.46152l-0.0493-0.42723c-0.01-0.09195-0.0213-0.111-0.0495-0.18669l-0.0724-0.4191c-0.0272-0.27076-9e-3 -0.97231-0.0505-1.1633-0.0193-0.08788-0.029-0.10008-0.0947-0.13767-0.0485 0.07798-0.0904 0.15697-0.10693 0.26187-0.0406 0.25806-0.12751 0.20345-0.13157 0.5781l-0.0516 1.0251c-0.0122 0.10465 5e-3 0.20472-0.0907 0.26213-0.0894 0.05334-0.12345 0.10312-0.23775 0.10312-0.0673-0.13767-0.0351-0.17907-0.0478-0.36017-9e-3 -0.13208-0.078-0.16942-0.10211-0.28423-0.0157-0.07569-0.0109-0.09804-0.0338-0.16916-0.10998-0.34011-0.19812-0.20879-0.2921-0.18161 0-0.08382 0.0254-0.12852 0.0147-0.22098-8e-3 -0.07442-0.0356-0.09779-0.0513-0.18542-0.0104-0.05791-0.015-0.14275-0.0279-0.2098-0.0117-0.06096-0.0269-0.11989-0.0302-0.19025-7e-3 -0.15418-0.0221-0.28727-0.0333-0.4445-0.0104-0.14224 3e-3 -0.31191-0.10972-0.34442-0.0963 0.06985-0.0744 0.21336-0.0787 0.37795-2e-3 0.08788-0.016 0.10516-0.0165 0.20523-2.6e-4 0.14326-0.0315 0.26187-0.066 0.39167-0.0493 0.18567-0.0983 0.8095-0.10846 1.015-7e-3 0.14554 0.0104 0.29642-9e-3 0.43612-0.0122 0.08712-0.0429 0.77216-0.0701 0.83337-0.12649-0.01143-0.0655-0.0955-0.0686-0.18491-2e-3 -0.06629-0.0249-0.1811-0.0269-0.2606-0.0155-0.57048 5e-4 -1.1453 5e-4 -1.716 0-0.21184-0.016-0.36678-0.0157-0.56617l-0.0165-0.54839c-0.0107-0.40132-0.10364-0.73101-0.11049-1.0297-7e-3 -0.31471-0.0488-0.74549-0.0475-1.098 7.6e-4 -0.18796-0.0203-0.95352-0.0409-1.1054l-0.0566-0.52197c-0.0277-0.17577-0.063-0.58496-0.061-0.79172 1e-3 -0.10846-7e-3 -0.16154-0.0173-0.25578-0.0125-0.11354 0.018-0.41072-0.10973-0.44755-0.0696 0.15672-0.0643 0.71907-0.0635 0.9779 5.1e-4 0.17755-0.016 0.3208-0.0157 0.5146 0 0.26568-0.03 0.4859-0.0315 0.7559-5.1e-4 0.0983-5e-3 0.11862-0.0198 0.19939-0.0145 0.08204-0.0216 0.11963-0.0295 0.22682-0.017 0.23292-0.0625 0.46838-0.062 0.7051l-0.0216 0.48184c-0.0122 0.10058-8e-3 0.33579-9e-3 0.49657-1e-3 0.09906-0.0173 0.12929-0.017 0.23901l-0.0155 0.75514c2.5e-4 0.42672 0.0328 1.1989-0.0114 1.5486-0.0186 0.1458 0.0452 0.86639-0.0678 0.95606-0.0937-0.06807-0.049-0.17678-0.047-0.3081 2e-3 -0.14834-0.017-0.22758-0.0165-0.37795 1e-3 -0.26213-0.0163-0.49403-0.0157-0.77191 5.1e-4 -0.15164-0.0168-0.23241-0.016-0.37744 1e-3 -0.16053-0.014-0.2286-0.0251-0.36728-6e-3 -0.07925 0.0168-0.07391 4e-3 -0.17399-7e-3 -0.05359-0.0183-0.12243-0.0231-0.1651-0.0249-0.22276-0.11506-0.92227-0.11404-1.0432 3e-3 -0.3589-0.0488-0.74473-0.0475-1.1153l-0.016-0.77191c-4e-3 -0.09931-1e-3 -0.2352-0.0793-0.29159-0.0701 0.11303-0.0584 0.27457-0.0838 0.40691-0.0427 0.22352 0.0358 0.06248-0.0772 0.41402l-0.0615 0.43078c-5e-3 0.26086-0.0485 0.71857-0.0472 0.94386 7.6e-4 0.16586 0 0.33172 0 0.49759 0 0.18415-0.0165 0.30099-0.0157 0.48031 5.1e-4 0.111 3e-3 0.37592-0.0635 0.42875-0.0795-0.02311-0.0714-0.07925-0.1016-0.16459-0.0289-0.08179-0.0615-0.10312-0.10718-0.1585-0.0752-0.09068-0.045-0.33833-0.045-0.50038 0-0.18288-2.6e-4 -0.36601 0-0.54889 2.5e-4 -0.19152-0.016-0.33071-0.016-0.53188 0-0.73812-0.0315-1.428-0.0315-2.1615 0-0.52172-5e-3 -1.6223-0.094-2.0942l-0.11862-1.5187c-0.0147-0.10414-0.0137-0.39319-0.0889-0.45263-0.0653 0.05182-0.0442 0.14326-0.047 0.25781-2e-3 0.09779-0.0165 0.16866-0.0165 0.29108 5.1e-4 0.21742-0.016 0.36932-0.0157 0.58318l2.6e-4 0.90957c5.1e-4 0.12014-0.0165 0.16332-0.0165 0.27356-5.1e-4 0.39802-5.1e-4 0.82525-0.0427 1.172l-0.11532 1.8994c2.5e-4 0.09677 2e-3 0.19558 7.6e-4 0.29235-1e-3 0.10414-0.017 0.16612-0.0165 0.29083 7.6e-4 0.19202 0.0201 0.40513-7e-3 0.5936-0.0155 0.10897 0.0117 0.14884 8e-3 0.26441-3e-3 0.09982-0.017 0.16739-0.0168 0.29134 5.1e-4 0.3015 0.0211 1.3086-7e-3 1.5027-0.0203 0.14097 0.018 0.16561 6e-3 0.27965-9e-3 0.08661-0.0404 0.14859-0.12599 0.15621-0.12268-0.0889-0.0434-0.24689-0.0701-0.43891-0.0114-0.0828-0.0125-0.17958-0.0223-0.25044l-0.0825-0.71679c-0.0127-0.16612-0.0323-0.3114-0.031-0.49809 2e-3 -0.24638-0.0475-0.53188-0.0386-0.76708l-0.0317-0.73482c-0.0272-0.20752 0.016-0.30353-0.11989-0.40208-0.0513 0.02946-0.082 0.07493-0.0919 0.14072-0.0196 0.13005 9e-3 0.15189-0.0394 0.42062-0.064 0.35154-0.0625 1.6335-0.11786 1.9312-0.0483 0.25806-0.10135 0.49936-0.11557 0.7841-0.0178 0.35712 0.0356 0.4732-0.11608 0.80086-0.0947 0.20447-0.0696 0.12598-0.0919 0.36347-5e-3 0.05563-0.0226 0.12167-0.0343 0.18593-0.0109 0.0602-6e-3 0.13183-0.0173 0.20422-0.0226 0.14021-0.0889 0.21158-0.10261 0.3523l-0.0666 0.83744c-2.6e-4 0.18237 0.0282 0.28346-0.0787 0.36068-0.0635-0.04597-0.0732-0.08661-0.0793-0.18999-3e-3 -0.04928 3e-3 -0.08331 7e-3 -0.12446l-7e-3 -0.62916c-8e-3 -0.15926-0.0328-0.34392-0.032-0.51435 3e-3 -0.60731-0.11253-0.74803-0.12599-0.96164-0.0142-0.22809-0.0465-0.54178-0.049-0.77038-2e-3 -0.18517 0.0259-0.60681-0.12624-0.68682-0.0706-0.03708-0.12547-0.0028-0.17018-0.09042-0.0269-0.05258-0.0381-0.16459-0.0472-0.22352-0.0305-0.1966-0.0178-0.3241-6e-3 -0.51283 5e-3 -0.0889-0.0394-0.12979-0.046-0.22098-8e-3 -0.10363 0.0226-0.14199 0.0165-0.25603-5e-3 -0.08865-0.0226-0.14402-0.0165-0.25781 5e-3 -0.08941 0.0165-0.14351 0.016-0.2573-2e-3 -0.43561-5e-3 -0.8956-0.0472-1.3213-0.0104-0.10643-0.0419-0.13437-0.0475-0.22327-9e-3 -0.13818 0.0127-0.1524-0.065-0.23851l-0.0498-0.04902c-0.0211-0.02057-0.0371-0.03683-0.0566-0.05867-0.0709-0.07925-0.0409-0.08788-0.0526-0.21742-8e-3 -0.08534-0.0417-0.13081-0.0462-0.22479-6e-3 -0.11379 0.0142-0.16281 0.017-0.25705 8e-3 -0.27711-0.0165-0.51968-0.0165-0.80696l-0.0157-1.6297c0-0.86284-4e-3 -1.5161-0.0645-2.3833l-0.0785-0.73838c-1e-3 -0.16815-0.0318-0.35128-0.032-0.51435-5.1e-4 -0.35179-0.0246-0.69901-0.0465-1.0478-9e-3 -0.14808-0.01-0.36043-0.0958-0.42824l-0.0483 0.61697c-5e-3 0.46457 0.0211 1.3261 7.6e-4 1.7333-4e-3 0.077724-0.0162 0.093726-0.0165 0.18796-2.5e-4 0.254 0.0241 0.61341-9e-3 0.84836-0.0193 0.13868-7e-3 0.2954-7e-3 0.43891l-0.13843 2.8694c-0.018 0.14173 8e-3 0.29464-0.0109 0.43409l-0.0163 0.82093c0.0264 0.1331 0.0549 0.2065 0.0363 0.38456l-0.0112 1.017c-0.01 0.06223-0.0325 0.09957-0.0488 0.15342-0.0348 0.11506-5e-4 0.24536-1e-3 0.39319v3.0366c5.1e-4 0.1684 0.0216 0.27534-0.11354 0.31166l-0.061-0.05436c0-0.20371 0.018-0.43053-9e-3 -0.62484-0.0269-0.19279-0.015-0.3998-0.0414-0.59004l-0.0678-0.56134-0.0719-1.8263c0-0.30302 0.0155-1.0193-0.127-1.1321-0.0239 0.05359-0.061 0.20041-0.0764 0.26035l-0.10287 0.86665c-0.0109 0.08433-1e-3 0.2347-0.0173 0.32461-0.0104 0.05867-0.0231 0.07849-0.0259 0.14351-7e-3 0.1557-3e-3 0.60096-0.11074 0.68656-0.15977-0.04597-0.0262-0.47981-0.206-0.53188-0.0226 0.1049-0.048 0.17043-0.0483 0.3081 0 0.10897 0.01 0.23292-4e-3 0.33909-0.0229 0.1811-0.014 0.47269-0.0287 0.67234-0.0239 0.32537-0.0813 0.3843-0.11252 0.58166-0.0653 0.41656-0.0765 0.89687-0.0765 1.3238l-0.015 0.34417c-2e-3 0.07722 0.0175 0.06579 0.0157 0.15291-2e-3 0.07391-0.0145 0.07036-0.017 0.15418-6e-3 0.20117 0.0287 0.49047 8e-3 0.64186-0.0445 0.32004 0.0968 0.52502-0.13411 0.52502-0.1237-0.19964-0.0104-0.17805-0.0729-0.5047-0.0168-0.08814-0.0201-0.18466-0.049-0.25578-0.0406-0.10033-0.0561-0.10033-0.0688-0.23419-0.0178-0.1872-0.048-0.36043-0.0473-0.56642 2.6e-4 -0.10185 3e-3 -0.20828 7.6e-4 -0.30963-6e-3 -0.29032-0.18821-0.2601-0.20701 0.0348-0.0102 0.16078-0.0584 0.1458-0.0973 0.25502-0.05 0.14046-0.0772 0.8062-0.0772 0.99746 0 0.05994 3e-3 0.12979 0 0.18872l-0.032 0.49708c5.1e-4 0.12141-0.0264 0.21209-0.0472 0.30912-0.0932-0.02362-0.14402 0.03277-0.18999-0.08738-0.0386-0.1016-8e-3 -0.12116-0.0201-0.23292-0.0254-0.23724-0.0251-0.37389-0.0277-0.62433-1e-3 -0.1303-0.0165-0.12598-0.0165-0.2728 5.1e-4 -0.41427-0.016-1.7849-0.0978-2.1417-0.0317-0.13868-0.11963-0.39929-0.1242-0.51765-5e-3 -0.14326-0.0376-0.39624-0.111-0.51486-0.062 0.04928-0.0462 0.11379-0.0612 0.20828-0.0145 0.09246-0.0188 0.12751-0.0183 0.23749 2e-3 0.40462-1e-3 0.83109-0.0521 1.2301-0.0125 0.09703 0.0102 0.15215-0.0747 0.17653-0.0711-0.05639-0.0229-0.20066-0.111-0.34315h-0.0792c-0.0699 0.11278-0.0569 0.10312-0.0635 0.27432-4e-3 0.09017-0.0279 0.19837-0.0409 0.29896-0.0412 0.32055-0.15265 0.44526-0.1496 0.86741 5e-4 0.09576 0.0112 0.21488-0.0998 0.23241-0.18491 0.02921-0.16941-0.30251-0.17119-0.31598-7e-3 -0.05232-0.0213-0.06426-0.0366-0.13183l-0.0734-0.60706c-2e-3 -0.18694-8e-3 -0.4887-0.0564-0.62509-0.0234-0.06553-0.0279-0.04953-0.048-0.11963-0.0406-0.14275-0.0551-0.30378-0.0536-0.45669 2e-3 -0.13691-0.0856-0.42443-0.1557-0.51791-0.0516-0.06883-0.0264-0.01829-0.0404-0.12802-0.0366-0.28804-6e-3 -0.88392-0.01-1.1902l-0.12242-1.5829c-0.0142-0.10135-0.0249-0.21361-0.034-0.30632-0.0396-0.40411-0.0508-0.90195-0.0503-1.318 2.5e-4 -0.24613-0.0188-0.40945-0.0635-0.61747h-0.0318c-0.0312 0.14478-0.0485 0.16688-0.0472 0.36068 2e-3 0.22352-0.032 0.91643-0.0594 1.1364-0.0379 0.30582-6e-3 0.77597-0.0389 1.0902-8e-3 0.07798 8e-3 0.27432-0.0607 0.32893-0.0429-0.09652-0.0234-0.17348-0.0536-0.28499-0.0284-0.10541-0.0444-0.16078-0.1524-0.16078-0.013 0.05969-0.0345 0.11709-0.0432 0.17602-0.0513 0.34138-9e-3 0.18161-0.0991 0.56185-0.0137 0.05766-0.0305 0.11709-0.048 0.1712-0.0513 0.15748-0.0478 0.44348-0.0475 0.61747 2.6e-4 0.14859-5.1e-4 0.29743 2.6e-4 0.44628 7.6e-4 0.15392-0.016 0.26137-0.016 0.42875 0 0.29667 4e-3 0.59639 5.1e-4 0.89281-1e-3 0.09525-0.016 0.10922-0.017 0.20447-7.6e-4 0.07391 3e-3 0.15088 1e-3 0.22428-3e-3 0.12421-0.0345 0.27889-0.0457 0.39649-0.0259 0.27635-0.0269 0.55321-0.0615 0.8255-0.034 0.26873-9e-3 0.56058-0.0386 0.81585-7e-3 0.06375-0.0262 0.11862-0.0295 0.19152-3e-3 0.07518 6e-3 0.14249-6e-3 0.21666-0.0175 0.11455-0.0549 0.24816-0.0574 0.36678-0.0818-0.02362-0.0696-0.22123-0.077-0.29413-0.0107-0.1049-3e-3 -0.26441-2e-3 -0.3749 5e-4 -0.14554-0.0168-0.21819-0.016-0.36017 2e-3 -0.41631 3e-3 -0.63221-0.0612-1.0488-0.0439-0.28778-0.14478-0.28143-0.14478-0.5809-0.0635-0.04597-0.17653-0.09017-0.1999-0.17831-5e-3 -0.0188-0.0224-0.3241-0.0221-0.35357 7.7e-4 -0.2573-0.0315-0.3114-0.0681-0.50952-0.0259-0.14072-0.0731-0.37313-0.0747-0.50241l-0.0645-0.87401c-8e-3 -0.07163-0.018-0.08509-0.094-0.08712-0.0643 0.2982-0.0409 0.88519-0.0841 1.2301-0.0119 0.095-0.0142 0.21184-0.0404 0.29921-0.015 0.04978-0.033 0.0696-0.0437 0.12421l-0.0536 0.74828c1e-3 1.1974-0.1204 0.70333-0.1999 1.1049-0.0493 0.24917-0.18821 0.65354-0.19533 0.76657-0.0173 0.27838-0.0998 0.2352-0.28194 0.14783-0.0808-0.03886-0.096-0.04877-0.10033-0.16612-5e-3 -0.12827-0.10464-0.5207-0.1397-0.65532-0.0368-0.14199-0.03-0.32309-0.0566-0.47041-0.0175-0.09652-0.0104-0.13335-0.0729-0.17856-0.0866 0.06858-0.10261 0.3716-0.11125 0.53162-5e-3 0.09779-0.045 0.16561-0.0785 0.24105-0.0302 0.06807-0.0305 0.17882-0.0478 0.25705-0.0894 0.40564 0.0241 0.97663-0.127 1.1318-0.0584-0.0051-0.0678-0.01143-0.0963-0.05029-0.0731-0.09931-0.0869-0.22581-0.0945-0.36093-0.0112-0.19431-0.0762-0.2982-0.0787-0.51537-1e-3 -0.11278-0.0272-0.17348-0.032-0.27432-5e-3 -0.09652 7e-3 -0.18948-7e-3 -0.28448-0.0145-0.10262-2e-3 -0.19482-0.0112-0.29693-8e-3 -0.08179-0.0444-0.1463-0.0615-0.22504-0.08 0.0071-0.019-1e-3 -0.063 0.01956-0.0813 0.03759-0.0528-0.0099-0.15901-0.01956-0.0719 0.14681-0.0409 0.37414-0.0612 0.56871-0.013 0.12421-0.0117 0.36474-0.0384 0.59309l-0.0963 0.53061c-0.0348 0.06071-0.13513 0.15291-0.18593 0.21031-0.0345 0.03912-0.0762 0.0729-0.12548 0.08712-0.18948-0.13741-0.0386-0.59766-0.25374-0.65202-0.0825 0.05969-0.0706 0.05283-0.0823 0.18542-0.0229 0.25908-0.12293 0.38075-0.16484 0.62789-0.0279 0.16561-0.0201 0.72974-0.0945 0.85852-0.0254 0.04394-0.016 0.03861-0.0706 0.04369-0.0145-0.05918-0.0157-0.02819-0.0376-0.09652-0.0526-0.16307-0.0292-0.49479-0.12776-0.77089-0.0249-0.0696-0.0381-0.11938-0.05-0.2032-0.0564-0.39091-0.0368-0.1839-0.11049-0.39497-0.0292-0.08357-8e-3 -0.12929-0.0576-0.19482-0.0455-0.06045-0.0968-0.07341-0.15825-0.10338-0.0775-0.0381-0.0742-0.06401-0.0767-0.1745-3e-3 -0.13741-0.0592-0.2794-0.0833-0.42469-0.0315-0.18948-0.0602-0.19533-0.0762-0.43231-9e-3 -0.13894-0.0284-0.30683-0.094-0.41275-0.10998 0.07976-0.10744 0.37186-0.12522 0.55067-0.0158 0.16002-0.0602 0.16688-0.0772 0.25959-0.0137 0.0729 0.032 0.30709-0.0447 0.3081l-0.1016-0.0046c-0.0559 2e-3 -0.0762 0.01041-0.1082 0.03861-0.0782 0.06934-0.0419 0.13665-0.0841 0.23495-0.0381 0.08839-0.0889 0.05715-0.11658 0.1999-0.0284 0.14783-0.0107 0.30582-0.0284 0.44958l-0.0274 0.4506c7.6e-4 0.08636 0.0249 0.21717-0.0597 0.26111l-0.20955 0.08204c-0.0803-0.12979-0.061-0.14376-0.0627-0.34392-1e-3 -0.12852-0.0325-0.22352-0.0503-0.34036-0.0511-0.33706-0.24308-0.19558-0.42621-0.32817 0-0.11608 0.0411-0.12294-4e-3 -0.2352-0.11608-0.28524-0.0528-0.21006-0.11202-0.42799-0.0236-0.08661-0.0391-0.10897-0.13716-0.10897-0.0556 0.11354-0.0411 0.11582-0.0475 0.27457-4e-3 0.10058-0.14783 0.69088-0.18771 0.75794-0.0239 0.04013-0.0526 0.05283-0.0846 0.08001l-0.13538 0.16231c-0.2253 0.28778-0.076 0.33045-0.22022 0.55093-0.16866 0.25832-6e-3 0.21666-0.31699 0.29261-0.13513 0.03302-0.10262 0.03124-0.20651-0.0508-0.0787-0.06198-0.0998-0.02972-0.16916 0.03785-0.14249 0.13919-0.15011 0.19482-0.19507 0.42393-0.0371 0.18948-0.11049 0.26695-0.26061 0.35281z" clip-rule="evenodd" fill-rule="evenodd" image-rendering="optimizeQuality" shape-rendering="geometricPrecision" stroke-width=".0254"/>
 </g>
</svg>
