<?xml version="1.0" encoding="UTF-8"?>
<!DOCTYPE svg PUBLIC "-//W3C//DTD SVG 1.1//EN" "http://www.w3.org/Graphics/SVG/1.1/DTD/svg11.dtd">
<!-- Creator: CorelDRAW 2023 -->
<svg class="h-auto w-48" xmlns="http://www.w3.org/2000/svg" xml:space="preserve" width="4.5in" height="2.2in" version="1.1" style="shape-rendering:geometricPrecision; text-rendering:geometricPrecision; image-rendering:optimizeQuality; fill-rule:evenodd; clip-rule:evenodd"
viewBox="0 0 4500 2200"
 xmlns:xlink="http://www.w3.org/1999/xlink"
 xmlns:xodm="http://www.corel.com/coreldraw/odm/2003">
 <title>Sound studio, San Juan Island</title>
 <defs>
  <style type="text/css">
   <![CDATA[
    .str0 {stroke:#373535;stroke-width:6.94;stroke-miterlimit:2.61313}
    .fil0 {fill:transparent}
    .fil5 {fill:#D63539;fill-rule:nonzero}
    .fil4 {fill:white;fill-rule:nonzero}
    .fil3 {fill:black}
    .fil2 {fill:#002DE3;fill-rule:nonzero}
    .fil1 {fill:#D63539;fill-rule:nonzero}
   ]]>
  </style>
 </defs>
 <g id="Layer_x0020_1">
  <metadata id="CorelCorpID_0Corel-Layer"/>
  <path class="fil1" d="M784.43 557.56c-19.79,0 -38.82,1.52 -57.48,4.95 -18.65,3.43 -35.4,9.14 -49.87,16.75 -14.46,7.61 -25.88,17.13 -34.64,28.55 -8.76,11.42 -13.32,25.12 -13.32,41.11 0,24.36 6.09,43.39 18.27,57.1 12.18,13.7 30.83,25.5 55.57,35.78 24.74,10.28 55.57,20.56 92.5,30.83 101.04,28.12 253.43,92.33 389.33,173 67.95,40.33 131.78,84.78 183,130.88 37.96,34.16 86.98,87.18 106.57,135.47 2.98,7.35 0.92,8.26 -14.11,1.43 -9.83,-4.46 -23.3,-11.03 -36.77,-16.48 -176.11,-71.3 -302.35,-103.28 -490.85,-139.53 -197.73,-38.02 -411.49,-80.72 -540.07,-194.32 -165.27,-146.02 -140.41,-424.4 26.44,-557.87 49.48,-39.59 106.2,-70.04 169.77,-90.97 63.57,-20.94 128.66,-31.22 195.65,-31.22 48.72,0 96.31,8 142.37,24.37 46.06,16.36 89.45,37.68 130.56,63.94 41.11,26.26 79.56,56.33 115.33,89.83 35.78,33.5 68.14,67.75 97.07,102.78l-115.34 97.06c-22.84,19.79 -46.44,33.88 -71.18,42.25 -24.74,8.37 -52.53,12.56 -82.98,12.56 -24.36,0 -45.68,-3.05 -63.95,-9.14 -18.28,-6.09 -35.4,-12.94 -51.39,-20.17 -15.98,-7.24 -31.98,-13.7 -47.96,-19.8 -15.99,-6.09 -33.5,-9.13 -52.53,-9.13z"/>
  <path class="fil2" d="M1093.78 1625.38c19.8,0 38.83,-1.52 57.48,-4.95 18.65,-3.43 35.4,-9.14 49.87,-16.75 14.46,-7.61 25.88,-17.13 34.64,-28.55 8.75,-11.42 13.32,-25.12 13.32,-41.11 0,-24.36 -6.09,-43.39 -18.27,-57.1 -12.18,-13.7 -30.83,-25.5 -55.57,-35.78 -24.74,-10.28 -55.57,-20.56 -92.5,-30.83 -101.04,-28.12 -253.43,-92.33 -389.33,-173 -67.95,-40.33 -131.78,-84.78 -183,-130.88 -37.96,-34.16 -86.98,-87.18 -106.57,-135.47 -2.98,-7.35 -0.92,-8.26 14.11,-1.43 9.83,4.46 23.3,11.03 36.77,16.48 176.11,71.3 302.35,103.28 490.85,139.53 197.73,38.02 411.49,80.71 540.07,194.32 165.27,146.02 140.41,424.39 -26.44,557.87 -49.48,39.59 -106.2,70.04 -169.77,90.97 -63.57,20.94 -128.66,31.22 -195.66,31.22 -48.72,0 -96.3,-8 -142.36,-24.37 -46.06,-16.37 -89.45,-37.68 -130.56,-63.94 -41.11,-26.26 -79.56,-56.33 -115.33,-89.83 -35.78,-33.5 -68.14,-67.75 -97.07,-102.78l115.33 -97.06c22.84,-19.79 46.44,-33.88 71.19,-42.25 24.74,-8.37 52.53,-12.56 82.98,-12.56 24.36,0 45.68,3.05 63.95,9.14 18.27,6.09 35.4,12.94 51.39,20.17 15.99,7.24 31.98,13.7 47.96,19.8 15.99,6.09 33.5,9.14 52.53,9.14z"/>
  <path class="fil3" d="M51 989.68l0 16.21c13.51,3.41 7.86,5.86 11.31,16.81 1.95,6.2 1.8,4.98 4.98,8.8 2.63,3.15 -0.03,7.32 6.81,7.49 1.48,-1.07 2.36,-1.79 2.97,-3.54 0.53,-1.52 0.72,-6.48 5.04,-4.55 1.26,0.57 1.2,0.74 2.09,1.89 2.13,2.76 5.91,4.88 8.63,6.88l5 3.37c0,11.72 2.24,10.65 4.92,19.67 3.2,10.76 4.89,6.97 11.94,12.08 0,6.04 -0.55,8.23 1.74,12.3 3.8,6.75 3.74,15.53 4.66,24 0.98,8.98 1.76,6.93 6.08,6.93 0.73,-3.4 0.78,-6.82 1.52,-10.52 0.71,-3.57 2.13,-6.12 3,-9.59 0.41,-1.63 1.5,-8.59 2.24,-9.73 1.69,-2.61 6.2,-1.39 9.28,-2.8 2.93,-1.34 3.48,-4.2 4.57,-7.21 1.16,-3.2 2.47,-5.58 3.28,-9.28 1.48,-6.76 -0.65,-17.03 2.33,-23.14 3.64,0.09 3.16,1.28 6.72,2.19 6.12,1.56 4.53,8.32 4.51,14.04l1.79 26.43c1.51,15.5 0.9,9.5 7.46,20.98 0.62,1.09 1.04,1.74 1.8,2.78 1.68,2.28 4.51,2.84 6.4,4.56 3.04,2.76 6.29,20.64 6.31,24.91 0.02,4.31 -0.59,13.46 4.35,14.89 3.69,-2.92 3.07,-10.21 3.69,-16.28l3.09 -17.59c0.79,-2.63 1.96,-4.79 2.43,-7.52 0.67,-3.95 0.06,-5.69 0.84,-8.48 1.68,-6 7.65,-1.37 9.67,-10.53 0.89,-4.01 0.42,-4.54 2.6,-7.31 3.35,-4.26 2.63,-11.01 4.11,-16.49 1.5,-5.52 4.74,-20.42 5.3,-26.02 0.35,-3.55 1.92,-14.49 3.23,-17.44 4.44,3.52 4.22,21.55 4.96,27.05 1.07,7.92 -0.51,11.17 3.37,18.65 3.04,5.87 2.91,22.04 7.28,25.21 4.29,-1.24 4.59,-8.38 5.5,-12.28 1.77,-7.65 -0.31,-10.01 2,-14.73 5.15,0 11.69,6.32 13.48,11.08 3.57,9.48 2.94,11.31 4.69,20.6 1.19,6.34 1.82,16.03 1.81,23.7 -0.01,7.18 -0.17,19.04 1.87,23.64 2.23,0 3.83,-0.49 4.94,-0.41 1.4,0.09 2.29,0.9 4.43,1.09 4.32,-6.98 2.9,-30.95 4.02,-39.56 1.29,-9.88 1.77,-18.71 4.28,-28.46l1.07 -10.33c8.95,-5.12 7.6,-0.23 8.15,7.39 0.74,10.33 0.26,23.24 1.55,32.09 0.98,6.78 3.14,9.23 5.34,21.24 1.21,6.59 -0.02,20.06 5.56,21.67 3.5,-2.77 3.46,-18.69 4.87,-25.12 0.69,-3.13 0.91,-5.83 1.76,-8.91 0.78,-2.8 2,-4.99 2.5,-7.43 0.6,-2.96 -0.34,-6.8 0.63,-9.46 1.22,-3.35 6.01,-3.91 8.16,-6.71 1.74,-2.26 3.2,-5.03 5.41,0.65 2.03,5.23 2.25,10.33 3.5,15.8 1.65,7.25 3.82,6.22 4.43,14.8 0.17,2.36 0.65,3.33 1.28,5.37 1.35,4.3 1.96,4.82 4.04,8.46 4.42,7.72 3.11,13.64 3.36,22.7 0.35,12.85 0.95,35.48 4.31,47.34 1.33,4.67 0.98,6.32 1.68,11.69 1.58,12.13 0.82,41.12 4.02,48.33 5.23,-1.51 4.31,-20.45 4.83,-24.5 1.19,-9.48 0.83,-17.45 2.39,-27.13 0.81,-5.01 2.06,-7.13 2.8,-11.83 0.66,-4.24 0.83,-8.69 1.42,-13.32 1.85,-14.39 -2.48,-10.6 4.65,-17.27 1.77,-1.65 3.41,-7.97 4.53,-10.63 0.72,-1.73 1.22,-3.75 1.8,-5.48 4.15,-12.46 5.7,-23.62 5.7,-38.41 -0,-10.57 0.63,-18.72 0.63,-29.04 -0,-2.69 0.46,-23.19 1.17,-25.07 0.75,-2 0.02,-1.39 1.95,-1.94 0.07,3.71 1.11,3.63 1.26,7.41l1.61 15.1c0.28,2.67 -0.1,3.79 0.09,6.04 0.32,3.81 1.12,8.11 0.92,11.51l1.46 20.24c0.51,3.95 0.35,12.21 0.8,16.8 0.59,6.01 1.11,10.73 1.36,16.76 0.21,4.97 1.73,10.71 1.88,16.2 0.08,2.87 -0.04,5.93 -0.04,8.83 0,4.06 0.63,4.9 0.67,8.73 0.13,11.89 -0.02,23.92 -0.02,35.82 -0,6.83 0.65,11.13 0.63,17.56 -0.04,10.59 -0.3,25.2 0.7,35.71 0.66,6.92 5.04,20.24 6.28,29.68 0.69,5.27 -0.24,12.33 4.26,13.63 5.03,0 2.6,-14.47 6.87,-17.56 2.1,4.29 1.79,7.28 1.85,13.53 0.03,3.49 0.5,3.71 0.65,6.72 0.13,2.54 -0,5.52 -0,8.11 0.01,6.15 -0.37,9.15 -0.03,14.2 0.67,9.86 1.98,19.44 1.9,29.02 -0.09,11.98 1.2,24.93 1.84,36.51 0.28,4.89 0.54,3.29 1.28,6.72 2.05,-0.59 1.89,-0.48 2.38,-2.83 2.35,-11.35 0.73,-25.2 1.9,-36.44 0.67,-6.48 -0.12,-15.39 0.07,-22.21 0.49,-17.75 5.78,-43.73 5.63,-60.09 -0.06,-7.19 1.32,-13.72 1.26,-20.92 -0.06,-7.46 0.62,-13.55 0.62,-21.62 0,-7.2 0,-14.41 0,-21.61 -0.01,-32.74 6.36,-16.33 8.03,-34.54 0.59,-6.41 -0.06,-15.19 1.69,-20.46 1.3,-3.94 2.18,-3.19 2.97,-7.59 1.17,-6.56 1.33,-13.4 1.67,-20.49l1.96 -20.17c0.4,-2.53 1.66,-7.21 1.5,-9.3 -0.75,-9.61 4.16,-7.98 5.91,-15.11 6.15,1.78 6.25,9.52 6.22,15.56 -0.04,9.94 4.05,17.98 5.4,27.25 0.52,3.61 0.5,6.95 0.96,10.44 0.39,2.94 1.16,6.91 1.56,9.78 0.56,3.92 1.55,6.4 5.2,4.5 1.97,-4.43 -0.82,-10.42 4.37,-14.18 3.28,3.09 2.93,11.13 3.12,15.54l1.26 37.81c-0,8 -0.6,11.88 2.5,16.89 5.67,-4.11 3.75,-10.89 5.36,-19.19l1.77 -10.91c0.73,-3.72 2.17,-5.71 3.01,-9.58 1.51,-7.03 2.97,-38.32 2.97,-47.44 -0,-8.64 0.62,-15.3 0.62,-24.31 0,-4.28 0,-8.56 -0.02,-12.85 -0.02,-4.8 0.67,-6.99 0.65,-12.13 -0.06,-12.83 0.02,-20.9 1.21,-33.81 0.28,-3 0.86,-5.24 3.83,-5.36 1.99,-0.08 3.2,0.78 4.15,2.2 1.94,2.9 1.22,6.26 1.68,9.66 2.61,19.38 0.66,53.72 4.7,71.23 0.99,4.27 2.82,6.87 4.12,11.07 1.52,4.9 -0.1,9.14 4.65,10.51 3.84,-3.94 3.15,-15.13 3.12,-21.62 -0.02,-4.65 0.98,-20.35 1.93,-23.58l5.24 -19.33c1.41,-6.94 -2.29,-19.72 5.33,-19.9 3.95,8.08 1.66,30.39 2.22,34.69 0.76,5.77 -0.7,8.02 0,12.86 1,6.95 -0.61,40.19 1.07,53.58 0.41,3.28 0.81,8.62 1.09,12.33 0.83,11.13 5.7,23.16 5.61,35.81l1.85 46.62c0.18,2.84 0.48,3.79 3.14,4.03 1.33,-5.39 1.79,-3.76 2.54,-11.44 0.32,-3.34 1.14,-8.57 4.33,-9.5 0.53,2.15 0.85,1.62 1.63,4.31 1.44,4.93 0.88,10.42 1.98,15.42 1.28,5.81 1.26,22.28 2.15,29.42 0.12,0.96 0.81,4.09 0.93,5.07 0.51,4.15 0.47,7.55 1.04,11.71 1.01,7.5 1.13,17.91 4.75,20.53 3.33,-2.41 2.79,-3.37 3.18,-8.72 0.24,-3.26 0.91,-8.33 1.16,-11.57 0.31,-4.06 -0.25,-8.7 0.06,-12.76 0.31,-3.97 0.59,-7.23 0.59,-12.19 -0,-13.03 1.31,-25.74 1.24,-36.47l2.07 -35.58c0.46,-3.4 0.74,-7.5 1.15,-11.59l1.15 -11.59c0.13,-3.06 0.87,-8.02 1.15,-10.91 0.78,-7.75 0.75,-16.87 0.71,-24.89 -0.02,-5.4 -0.18,-7.47 1.88,-10.8 5.49,0.49 5.03,6.65 5.01,11.46l-0.02 118.89c0,11.23 -0.15,22.58 -0.02,33.8 0.06,5.61 0.85,10.27 0.63,16.21l1.24 73.61c0.04,3.75 0.63,4.3 0.67,8.05l0.67 24.27c1.55,23.09 3.72,47.96 3.68,69.63 -0.01,6.31 0.64,9.89 0.63,16.21 -0.01,5.65 -0.5,11.81 0.26,17.28 1.26,8.96 0.36,23.6 0.36,33.38 0,12.12 0.63,21.9 0.63,33.77 0,17.22 -1.41,50.93 1.87,66.19l4.12 -17.84 2.13 -50.38c-0.07,-9.46 1.54,-19.72 2.61,-28.92 1.92,-16.46 1.35,-25.98 2.41,-39.94 2.07,-27.33 1.28,-56.15 1.22,-83.78 -0.02,-7.35 0.62,-13.05 0.62,-20.94 0,-11.36 -1.12,-32.14 0.17,-42.36 0.77,-6.07 -0.12,-13.8 0.53,-20.37 0.87,-8.78 1.69,-9.74 5.13,-16.06 2.33,-4.27 6.96,-27.32 7.3,-33.98 0.68,-13.2 1.23,-27.4 1.23,-41.22 0,-12.97 -1,-30.56 0.45,-42.06 0.77,-6.11 -0.89,-23.87 3.09,-28.39 4.93,-5.6 8.02,2.28 9.83,-10.31 0.46,-3.24 1.37,-6.09 1.58,-9.09 0.25,-3.58 -0.21,-6.91 0.29,-10.49 1.76,-12.61 -1.21,-20.99 4.59,-48.38 1.28,-6.04 2.04,-11.43 2.01,-18.76 -0.01,-3.48 -0.2,-7.2 0.26,-10.52 0.48,-3.44 0.15,-6.72 0.62,-10.13 1.82,-13.01 -0.45,-27.67 2.24,-40.13l2.5 0 1.63 7.01c0.41,3 0.09,5.53 0.24,8.52 0.15,3.15 0.67,4.15 0.64,8.09 -0.07,8.76 1.2,17.16 2.4,25.1 1.3,8.67 3.87,12.28 4.44,22.22 0.24,4.13 0.57,4.83 1.23,8.12 1.4,6.94 -0.94,7.37 2.02,11.32 8.47,11.3 4.37,19.17 6.39,34.29 0.74,5.54 0.86,11.41 2.1,15.96 4.31,15.85 4.3,68.29 7.35,90.66 0.79,5.8 2.39,9.76 2.73,15.28 0.24,3.87 -0.54,5.81 2.55,6.7 2.76,0 3,-4.41 3.11,-6.76 0.21,-4.29 0.99,-6.04 1.22,-9.49l3.98 -80.13c1.58,-9.84 2.84,-27.74 3.96,-37.28 0.98,-8.41 -1.21,-12.22 2.09,-18.98 3.93,0.09 4.88,1.93 5.02,6.05 0.96,27.39 0.61,54.35 0.6,81.75l0.62 33.78c-0.03,4.89 0.67,6.74 0.65,11.46 -0.02,3.84 -0.02,7.67 -0.03,11.51 -0.04,8.95 1.47,24.95 1.89,33.75l1.23 21.63c0.04,6.87 1.59,15 1.89,21.6 0.68,15.3 1.28,29.49 1.25,45.93 -0.02,7.66 0.63,14 0.63,22.29 0,7.77 -0.24,15.94 -0.02,23.66l0.64 22.94c0,8.76 0.36,14.57 1.87,21.61l1.25 0c3.6,-16.72 2.92,-21.92 3.74,-38.5 0.17,-3.5 0.66,-5.64 0.62,-10.13 -0.07,-8.52 1.62,-20.81 3.19,-28.97 0.59,-3.05 0.44,-6.28 0.91,-9.82 1.32,-9.91 2.16,-19.46 2.15,-30.09 -0.01,-7.68 0.63,-13.02 0.63,-20.94 -0,-53.44 2.12,-106.42 1.87,-160.07 -0.06,-11 1.93,-7.27 5.61,-15.54 1.2,-2.69 1.68,-5.1 5,-5.4 3.03,6.82 1.41,17.33 2.13,25.81 0.15,1.75 0.38,5.06 0.37,8.63 -0.02,6.53 0.02,13.07 -0.01,19.6 -0.03,6.5 0.96,12.93 1.26,18.9 0.15,3.06 -0.16,6.41 -0.01,9.46 0.8,15.96 1.54,13.87 3.29,26.83 0.28,2.09 1.19,5.27 1.73,7.59 1.36,5.87 -0.31,7.09 2.56,17.49 0.61,2.2 0.95,6.31 1.79,8.2 4.76,-3.78 3.76,-35.56 3.74,-41.88l2.85 -58.37c0.36,-2.78 0.24,-4.4 0.8,-6.57 1.54,-5.96 1.48,-13.41 2.55,-18.85 2.35,-12.06 1.41,-44.16 2.58,-59.36l1.18 -37.22c-0.04,-4.33 -0.53,-4.28 1.91,-6.04 1.68,1.33 0.96,0 1.64,2.95 2.62,11.24 -0.39,23.5 1.03,34.69 1.73,13.69 0.46,43.65 0.45,60.3l1.25 49.3c-0.02,4.46 0.45,6.64 0.63,10.13 0.17,3.28 -0.11,6.85 -0.02,10.16l3.24 37.02c0.95,5.84 1.78,12.46 1.76,18.36 -0.02,4.19 0.67,5.22 0.66,9.42l0.58 29.76c0.05,3.9 0.68,5.09 0.67,9.41 -0.06,15.02 -0.14,26.36 2.48,38.51 2.21,-0.64 1.63,-0.46 2.3,-2.91 2.61,-9.46 2.04,-20.57 2.73,-30.15 0.18,-2.53 0.54,-2.35 0.61,-5.42 0.18,-7.31 0.35,-13.47 1.57,-20.59 3.45,-20.22 4.03,-41.52 4.03,-62.5 0,-9.95 0.37,-27.93 1.34,-37.72l2.5 -25.66c0.68,-5.69 2.38,-13.63 2.43,-19.67 0.11,-13.6 1.28,-29.68 1.23,-43.25l-0.02 -66.89c0.01,-4.41 0.77,-6.07 0.67,-10.81 -0.11,-5.03 -1,-5.14 1.23,-8.75 2.28,0.66 1.31,0.71 3.12,2.03 0,12.35 1.31,14.26 1.24,24.32l1.17 24.41c0.96,9.28 0.39,22.88 2.98,31.22 1.45,4.69 2.05,9.54 2.83,14.5 1.28,8.08 0.07,24.52 3.02,31.18l3.12 0c2.36,-3.81 2.14,-10.89 2.52,-15.52 0.78,-9.59 0.63,-23.63 3.83,-32.33 2.11,-5.73 -0.32,-10.7 1.77,-14.97 12.25,1.1 8.75,-2.17 10.88,-11.19 1.43,-6.06 3.72,-3.99 5.63,-18.22 0.69,-5.14 0.54,-10.71 2.22,-14.49 5.27,0.48 3.34,5.16 6.39,7.95 2.85,2.61 5.9,2.27 6.13,8.22 0.09,2.38 -0.19,5.04 0,7.43l1.23 20.95c0.03,5.53 0.99,23.42 2.28,27.25 1.57,4.67 3.77,3.17 3.94,10.6 0.11,5 1.19,8.49 5,9.45 1.93,-1.98 2.33,-2.79 2.51,-6.74 0.17,-3.59 0.64,-4.73 0.62,-8.78 -0.01,-3.15 -0.07,-6.36 -0.04,-9.5 0.05,-3.9 0.68,-5.09 0.67,-9.41 -0.05,-13.39 1.06,-23.92 3.81,-34.37l3.02 -15.64c0.21,-3.05 -0.2,-6.2 0.17,-9.27 0.33,-2.67 1.09,-5.46 1.12,-8.93 0.1,-10.5 0.17,-20.36 2.07,-30.85 0.56,-3.08 -0.05,-2.28 1.65,-3.62 2.94,13.63 1.91,33.07 1.87,47.95 -0.02,6.31 0.64,9.89 0.63,16.2 -0.02,11.03 -0,22.07 -0,33.1 0,11.87 0.67,21.71 0.63,33.09 -0.02,6.04 0.66,9.37 0.62,15.54 -0.11,20.04 6.24,35.91 6.89,59.41 0.07,2.63 -0.02,5.48 -0.04,8.14 -0.02,3.92 0.49,4.95 0.64,8.09 0.29,5.81 -2.01,26.68 3.12,30.39 2.15,-1.56 2.74,-3.55 3.04,-6.84l5.27 -47.65c0.83,-5.97 0.39,-13.71 1.22,-20.29 0.73,-5.75 1.09,-12.88 1.08,-19.77l0.6 -31.09c0.01,-4.27 0.68,-5.61 0.66,-10.09 -0.02,-3.57 -0.11,-7.3 -0.04,-10.85 0.1,-4.6 1.19,-5.46 1.9,-8.75 8.24,0 6.28,9.08 6.22,14.15 -0.1,8.05 0.65,13.97 0.65,22.32 0,18.99 -0.43,35.83 1.42,54.32 0.22,2.25 0.32,5.58 0.43,9.86 0.17,6.39 1.58,14.38 1.89,20.91 1.36,27.87 1.93,60.91 1.87,89.15 -0.01,6.69 0.49,14.86 1.28,20.9 2.2,16.85 3.92,34.7 4.33,52.05 0.09,3.57 0.5,6.4 0.61,10.82l1.72 32.59c0.52,2.85 1.15,7.23 2.05,9.26 5.52,-4 3.76,-28.99 3.74,-36.47 -0.01,-4.11 0.21,-6.43 0.53,-9.55 0.93,-8.95 -0.9,-20.4 2.59,-28.27 2.81,2.23 3.37,8.05 3.71,12.87 1.6,22.39 0.7,45.06 0.66,67.5l0.88 32.81c0.32,2.41 0.7,5.95 0.88,7.83 0.27,2.91 -0.46,5.56 1.98,6.63 2.11,-4.76 3.33,-22.77 3.71,-27.73 1.19,-15.48 0.24,-30.04 2.06,-45.05 1.76,-14.44 4.13,-28.98 4.84,-43.39l0.63 -14.85c-0.05,-5.54 0.62,-9.4 0.62,-15.54 -0,-8.48 -0.65,-39.37 2.16,-45.62 0.75,-1.67 1.98,-3.3 2.88,-4.98l2.44 -5.46c4.38,-7.48 3.98,3.14 5.6,-18.26 0.72,-9.49 0.7,-28.88 0.65,-39.15 -0.03,-5.56 0.63,-9.37 0.63,-15.52 -0.01,-14.98 -0.69,-32.82 1.07,-46.79l0.8 -15.35c0.15,-5.26 0.83,-9.49 1.52,-14.57 2.68,-19.61 3.5,-38.04 3.48,-59.05 -0.01,-5.97 0.66,-9.41 0.63,-14.85 -0.03,-5.3 -0.17,-10.98 -0.03,-16.24 0.09,-3.06 0.7,-4.2 0.7,-7.41 0,-5.61 -1.22,-8.81 0.18,-14.61 0.65,-2.69 1.22,-3.64 3.51,-4.3 4.98,3.94 2.5,31.06 4.34,38.53 0.83,3.37 1.43,4.68 1.92,8.73 0.52,4.28 1.55,4.62 2.57,8.02 1.63,5.43 1.06,11.87 3.85,17.44 3.31,6.61 4.81,7.78 4.81,16.4 0,7.21 -0.02,14.43 -0.02,21.64l0.66 20.9c0.83,10.8 1.16,41.01 1.2,53.43l2.22 28.64c1.04,6.87 2.08,12.19 2.84,19.22 1.94,18.06 1.08,52.93 2.28,62.38 0.43,3.43 -0.08,7.01 0.33,10.46 0.43,3.7 0.39,6.41 2.96,8.27 3.16,-2.5 2.35,-8.19 2.95,-13.02 0.56,-4.54 0.83,-10.72 0.8,-15.35 -0.04,-5.8 0.46,-9.57 0.61,-15.56 0.22,-8.96 5.04,-32.11 5.04,-44.53 0,-10.7 1.29,-21.49 1.24,-31.76l0.59 -23.67c0,-3.71 0.5,-4.34 0.65,-7.4 0.54,-10.74 0.62,-20.04 2.16,-30.77 0.31,-2.16 0.14,-5.86 0.15,-6.96 0.01,-2.13 0.16,-5.06 0.45,-7.24 1.02,-7.5 -0.65,-28.93 1.52,-35.51 0.66,-2.02 1.7,-4.63 3.84,-4.63 5.01,1.45 4.37,10.03 4.37,16.89l0.61 31.76c-0.02,4.48 0.66,5.82 0.66,10.09 0.01,10.23 0.54,21.67 1.81,31.13l2.79 18.6c1.95,9.73 2.11,20.47 2.22,30.69 0.04,3.99 0.68,5.52 0.63,10.12 -0.04,4.37 -0.04,7.17 3.14,8.09 4.3,-3.41 3.36,-22.51 3.68,-27.09 0.19,-2.67 0.02,-5.38 0.04,-8.06l2.33 -30.57c0.43,-2.72 0.82,-4.26 1.19,-6.81 0.41,-2.82 0.36,-4.85 0.81,-7.22 1.05,-5.5 1.15,-10.1 1.29,-15.49 0.09,-3.4 0.63,-3.74 0.67,-7.38 0.07,-6.26 -1.06,-11.41 2.47,-14.21 6.01,0.54 6.28,9.73 6.25,16.88 -0.04,8.1 -0,16.22 -0,24.32 0,8.79 0.63,15.31 0.63,23.64 -0,8.1 0.04,16.21 -0,24.31 -0.02,4.95 0.64,7.04 0.65,11.46 0,4.01 -0.15,8.22 -0.04,12.2 0.11,3.91 0.68,6.58 0.64,11.46 -0.08,11.37 1.65,22.74 2.47,33.8l1.3 22.9c0.01,8.56 0.52,14.44 1.34,22.19 1.01,9.61 1.14,58.98 1.14,71.71 0,32.33 -0.43,65.28 1.87,95.23 3.62,-1.05 2.61,-7.25 3.27,-11.27 0.31,-1.92 0.97,-4.19 1.46,-6.57 1.17,-5.65 1,-6.94 3.21,-12.73 3.74,-9.82 3.3,-41.93 3.29,-53.85 -0,-6.15 0.66,-9.97 0.63,-15.52l-0.01 -49.31c0,-21.88 1.33,-43.52 1.24,-64.85 -0.04,-8.59 2.76,-12.17 4.47,-19.48 1.28,-5.44 0.96,-2.37 4.56,-3.85 7.4,-3.03 5.08,-42.23 5.32,-50.98 0.09,-3.46 0.66,-4.15 0.67,-8.06 0,-5.21 -0.28,-11.12 -0.02,-16.24 0.29,-5.78 2.13,-31.39 3.27,-36.99 0.38,-1.86 1.34,-5.27 1.58,-7.07l2.64 -62.65c0,-2.71 -0.02,-5.42 -0.02,-8.13 0,-3.71 0.5,-4.34 0.65,-7.4 0.68,-13.65 -0.06,-26.31 1.4,-39.69 0.38,-3.52 -0.02,-4.52 2.35,-6.24 0,7.3 1.07,15.94 1.27,22.94l3.44 136.08c0.8,4.53 1.22,9.83 2.14,13.89 2.13,9.39 3.19,19.65 3.13,29.7 -0.06,9.86 1.33,21.97 1.27,31.72 -0.06,7.32 0.64,9.22 1.86,14.87 3.39,-2.69 3.96,-17 4.81,-21.81 0.63,-3.6 1.47,-4.49 2.06,-7.22 3.81,1.1 3.78,6.87 3.76,10.8 -0.03,5.35 1.02,8.85 1.24,13.52 0.43,8.79 1.12,20.06 0.84,27.83 -0.09,2.56 0.41,8.56 0.39,13.38 -0.03,7.15 1.44,21.13 1.93,28.3 0.3,4.34 0.73,9.39 5.57,9.5 0.54,-2.18 0.46,-1.04 1.13,-2.83 0.5,-1.34 0.56,-1.48 0.91,-3.07 1.5,-6.91 2.3,-31.11 2.31,-40.05 0,-3.71 0.49,-4.35 0.65,-7.41 0.14,-2.78 -0.03,-5.98 -0.02,-8.81 0,-3.71 0.5,-4.34 0.65,-7.4 0.14,-2.81 -0.06,-5.96 -0.03,-8.81l1.25 -32.41c0.02,-15.14 4.43,-30.97 4.39,-45.91 -0.03,-9.39 2.53,-21.19 1.51,-31.35 -0.52,-5.18 2.19,-8.82 3.49,-12.54 0.81,-2.31 0.59,-3.72 1.58,-6.39 4.12,-11.11 3.47,-32.46 5.31,-36.81 0.62,-1.48 0.63,-0.63 1.31,-2.63 1.84,-5.4 3.07,-20.84 3.04,-26.43 -0.03,-5.15 -0.35,-11.95 -0.03,-16.92 0.48,-7.44 7.32,-3.56 8.03,0.14 1.3,6.81 -0.11,17.59 0.09,24.89 0.1,3.46 0.67,4.15 0.67,8.06 0.03,21.71 1.62,41.59 4.69,62.46 0.81,5.55 1.57,8.95 1.52,15.24l0.73 16.1c1.6,15.46 -0.28,33.94 0.53,50.08 0.2,4 0.27,11.91 1.88,15.53 5.44,-1.57 3.6,-10.81 5.85,-15.95 1.74,-3.96 3.93,-3.94 4.13,-9.71 0.17,-4.73 0.33,-12.5 0.98,-17.17 0.95,-6.77 0.2,-46.1 0.98,-53.65l1.17 -16.97c0.04,-4.33 0.23,-13.75 2.31,-16.41 1.52,-1.96 2.56,-2.85 4.65,-3.76 3.47,-1.51 2.78,-0.98 4.06,-5.07 1.56,-5.03 3.2,-8.08 3.37,-14.59 0.39,-15.29 0.21,-29.23 2.95,-42.74 0.57,-2.82 0.81,-5.48 1.32,-8.03 0.96,-4.81 2.93,-9.55 2.73,-14.5 -0.24,-6.03 1.12,-10.04 1.1,-16.48 -0.03,-9.3 -0.12,-8.81 1.87,-16.89 5.8,1.68 3.48,19.85 3.74,24.99 0.16,3.04 0.65,2.53 0.57,5.39 -0.46,18.25 -0.49,45.84 1.21,62.93 0.2,1.98 -0.01,3.9 0.18,5.89 0.3,3.17 1.43,7.33 1.71,10.31 0.51,5.58 -0.35,5.77 1.65,10.38 3.47,8.04 2.97,22.92 3.43,32.09 0.19,3.84 0.61,6.65 0.61,11.5 -0.01,4.41 1.13,6.54 1.89,10.11 5.15,-0.46 4.81,-9.33 5,-13.51 0.3,-6.49 0.45,-12.47 1.2,-18.29 0.8,-6.3 2.97,-8.3 3.17,-15.48 0.14,-5.19 1.91,-6.36 3.4,-10.5 0.35,-0.98 1.02,-3.28 1.36,-3.93 2.55,-4.97 11.27,3.12 11.48,-15.95l2.3 -26.56c1.07,-7.61 -0.02,-10.61 3.32,-16 4.2,0 9.15,1.79 10.31,5.06 0.93,2.59 1.35,24.55 2.24,29.99 0.78,4.71 1.84,7.83 2.6,13.4 0.96,6.98 2.33,14.15 2.34,21.78 0,2.71 -0.02,5.43 -0.04,8.14 -0.02,4.06 0.61,11.53 1.14,14.98 1.02,6.67 3.53,5.69 7.62,8.64 0,4.96 0.29,8.22 0.59,12.19 0.33,4.27 -0.25,9.16 0.06,13.44 0.3,4.09 1.08,7.46 1.22,12.19 0.11,4.01 1.03,8.28 1.23,12.18 0.44,8.79 3.18,30.35 3.15,36.44l0.62 66.2c-0.01,5.3 0.64,8.25 0.65,12.81 0.01,9.63 -1.23,31.57 1.85,38.52 1.41,-0.56 0.99,-0.09 1.61,-1.64 0.91,-2.3 1.28,-7.52 2.06,-9.93 1.7,-5.29 1.25,-7.13 2.19,-13.17 0.94,-6.07 3.54,-4.46 3.53,-11.71 -0,-5.83 1.19,-9.51 1.25,-14.85 0.14,-12.53 0.57,-33.61 1.76,-45.38 0.27,-2.68 -0.07,-5.05 0.32,-7.76 0.47,-3.19 1.14,-3.98 1.65,-6.33l2.5 0c0.57,2.31 1.21,2.03 1.99,4.59 1.6,5.22 -0.56,14.21 4.25,17.69 3.05,-2.42 3.07,-9.3 3.1,-14.87l0.64 -17.55c-0.02,-3.78 0.31,-5.51 0.56,-8.22 0.38,-4.13 -0.94,-3.85 -0.31,-8.35 1.59,-11.52 -0.44,-35.2 1.99,-53.27 0.74,-5.47 0.48,-12.22 1.33,-16.8 2.85,-15.39 1.46,-20.5 3.14,-33.75l1.42 -53.85c0,-14.84 0.11,-30.18 1.22,-44.61 0.23,-3.01 -0.17,-6.38 0.07,-9.39l0.99 -13.11c0.68,-3.37 -0.55,-1.53 1.48,-3.13 1.44,6.68 2.44,15.82 2.52,22.94 0.11,10.11 1.16,49.57 4.02,56.44 3.88,9.32 2.77,20.74 4.51,30.24 1,5.47 2.87,8.35 3.94,13.3 9.22,0 7.77,8.61 9.19,16.39 1.04,5.66 2.62,28.7 2.68,34.89 0.12,11.35 1.23,18.16 1.23,24.36 0,4.95 0.34,8.11 3.13,10.13 3.29,-0.83 4.49,-2.94 4.99,-6.76 2.38,-18.3 3.26,-25.76 3.73,-45.27l1.9 -22.26c0.03,-6.51 0.99,-5.52 2.22,-10.43 0.61,-2.45 0.5,-7.87 1.06,-11.01 0.51,-2.87 1.28,-7 1.62,-10.41 0.63,-6.39 0.25,-18.26 2.69,-22.09 1.71,-2.69 4.3,-3.09 4.83,-6.93 0.32,-2.33 0.24,-3.41 0.62,-5.41 0.39,-2.06 0.83,-3.83 1.17,-5.49 1.5,-7.39 1.04,-14.93 3.89,-20.78l12.97 4.87c1.91,1.43 2.41,3.65 2.6,6.65 0.68,10.86 2.54,11 2.54,26.98 -0,5.63 -0.82,13.22 1.87,17.56 11.43,-1.03 11.59,-25.99 12.49,-34.44 0.76,-7.17 0.64,-14.87 0.61,-22.98 -0.03,-7.11 1.89,-18.29 1.89,-22.27 2.65,-0.67 7.62,-3.47 9.8,-1.87 2.43,1.78 1.76,7.78 2.24,11.81 0.99,8.18 0.01,18.73 0.45,27.89 0.29,6.11 2.13,17.59 4.97,22.99 2.72,5.19 0.87,11.16 3.53,17.12 1.25,2.81 1.05,2.46 3.37,3.78 6.06,-9.79 1.15,-23.83 6.42,-40.34 1.59,-5 4.45,-17.76 3.85,-22.74 -0.46,-3.81 -0.26,-7.63 2.39,-10.35l1.01 -0.94c3.24,-3.25 5.07,-10.73 7.56,-10.73 6.97,2.02 2.33,18.31 7.61,23.53 6.95,6.87 10.88,-11.67 11.11,-16.78 0.24,-5.34 2.06,-7.44 3.15,-12.13l3.04 -12.92c0.81,-4.64 0.41,-9.54 1.43,-13.99 0.7,-3.05 0.44,-11.36 3.63,-12.28 0.56,1.27 1.43,8.05 1.89,10.12 0.57,2.54 1.24,7.7 1.25,10.8 0.04,6.3 0.44,16.8 2,22.83 0.83,3.22 2.18,4.39 3.04,8.87 0.7,3.65 1.62,6.72 2.46,10.17 2.67,10.95 -3,12.86 11.21,12.86 1.53,2.47 1.6,1.06 2.26,4.98 0.41,2.45 0.52,4.35 0.85,6.51 1.27,8.24 1.91,19.31 1.88,28.36 -0.02,6.23 -1.08,10.25 2.49,12.83 14.65,-10.61 7.3,-31.48 14.36,-45.93 2.75,0.07 3.13,0.08 4.2,2.22 1.49,3 0.3,2.3 2.67,4.54 5.52,-1.39 4.59,-11.04 5.09,-16.11 0.64,-6.55 0.9,-22.34 4.16,-27.92 4.28,-7.33 1.62,-20.23 5.74,-26.89l3.12 0c4.28,6.9 2.13,19.17 7.06,26.13 3.81,5.38 0.44,16.77 8.11,15.26 3.67,-0.72 2.61,-2.08 5.44,-2.9 4.56,3.3 3.22,8.51 4.28,14.96 0.5,3.09 1.91,15.91 2.59,17.46 2.27,1.18 3.93,1.04 5.55,-0.74 1.97,-2.18 1.2,-3.35 2.13,-6.49 1.94,-6.57 2.37,-2.26 3.45,-13.15 0.33,-3.31 0.28,-4.17 0.88,-7.15 0.41,-2 1.25,-5.12 1.58,-7.12 1.19,-7.26 -1.04,-6.14 5.74,-9.27 4.79,-2.21 6.79,-1.81 7.55,-8.72 0.94,-8.56 2.91,-6.46 5.17,-11.29 2.26,-4.84 -0.65,-9.64 3.76,-12.82 3.44,-2.48 4.63,-1.82 6.29,-6.03 0.63,-1.61 0.88,-1.84 1.6,-3l3.12 0c1.03,1.66 1.05,1.55 1.78,3.48 1.33,3.51 2.65,5.51 6.66,4.37 11.81,-3.36 5.34,-13.07 11.54,-17.98l0 -45.25c-0.59,-0.73 -0.33,-0.22 -1.04,-1.57 -2.15,-4.09 -2.37,-9.53 -3.33,-13.96 -5.48,-1.38 -9.23,-3.19 -14.31,0.07 -3.71,2.39 -3.07,1.43 -6.51,-0.51 -1.98,-1.11 -4.48,-1.57 -5.87,-3.1 -2.27,-2.47 -1.63,-10.71 -4.42,-14.81 -1.66,-2.44 -2.5,-2.25 -3.17,-6.03 -1.12,-6.35 -2.04,-8.56 -7.14,-11.86 -4.74,-3.06 -8.99,-12.38 -9.15,-19.14 -0.15,-6.24 -1.93,-10.56 -2.87,-16.48 -0.72,-4.61 -0.42,-7.77 -4.92,-8.96 -2.73,-0.72 -5.06,0.58 -5.63,3.51 -0.26,1.33 0.25,6.7 -0.67,12.09 -1.11,6.46 0.12,10.24 -3.39,15.92 -5.02,0 -3.18,-0.76 -6.65,-1.67 -7.5,-1.96 -5.44,12.01 -8.17,15.36 -3.7,4.55 -3.89,5.73 -3.91,12.66 -0.02,5.9 -1.08,9.07 -4.38,11.47 -5,-4.7 -5.14,-6.19 -4.71,-15.74 0.24,-5.21 -3.07,-11.13 -4.28,-16.41 -1.48,-6.39 -1.59,-12.26 -2.42,-19 -0.82,-6.7 -0.16,-13.24 -2.95,-17.74 -5.87,0 -3.63,0.83 -7.18,1.77 -7.73,2.06 -5.61,-15.59 -6.27,-20.32 -0.91,-6.43 -0.41,-10.26 -3.87,-14.05 -3.84,-4.2 -3.65,-9.59 -7.65,-9.95 -1.1,5.12 -1.26,7.02 -1.25,13.51 0,2.43 0.09,5.04 0.02,7.45 -0.09,3.33 -0.57,3.37 -0.67,6.71 -0.49,17.85 -1.14,11.05 -2.48,23.66 -0.25,2.37 -0.12,3.66 -2.44,4.83 -1.75,0.88 -4.34,-0.38 -6.64,0.16l-2.37 1.53c-0.2,0.26 -0.78,1.76 -0.8,1.84 -0.32,1.33 -0.33,3.34 -0.51,4.85 -1.16,9.56 -2.77,9.17 -4.61,16.62 -3.86,15.57 -2.56,28.2 -4.19,38.02 -0.65,3.88 -1.55,4.92 -2.17,7.79 -2.38,-1.36 -1.66,0.06 -2.8,-3.05 -0.72,-1.96 -0.75,-2.82 -0.96,-5.04 -0.96,-9.83 -1.2,-21.3 -5.2,-30.17 -2.26,-5 -2.6,-13.83 -4.39,-19.56 -1.8,-5.78 -2.09,-14.15 -10.99,-7.7 0,5.72 -0.57,9.17 -1.33,14.1 -0.59,3.85 -0.72,8.48 -4.91,9.54 -3.26,-2.37 -1.67,-4.9 -3.97,-8.54 -1.47,-2.31 -4.44,-3.37 -6.65,-4.97 0,-12.49 0.89,-4.99 -1,-19.18 -0.64,-4.79 -0.15,-5.08 -1.59,-9.09 -2.01,-5.61 -2.48,-11.65 -3.5,-17.15 -1.26,-6.8 0.53,-22.83 -4.53,-26.85 -2.77,2.01 -2.78,5.24 -3.63,8.91 -0.87,3.74 -0.87,6.54 -1.44,10.6 -0.49,3.45 -2.67,5.78 -3.75,8.78 -0.92,2.56 -1.36,7.22 -1.68,10.34 -1.1,10.88 -0.84,25.19 -1.34,36.38 -0.23,5.25 -0.48,6.25 -3.14,8.76 -1.01,-0.26 -8.36,-3.43 -8.81,-3.97 -1.89,-2.23 -1.19,-8.23 -1.17,-12.25l-1.76 -37.94c-0.52,-4.41 -0.96,-7.04 -1.4,-11.32 -0.81,-7.98 -6.91,-9.61 -8.71,-16.92 -3.84,0.34 -2.86,2.88 -3.4,7.12 -1.2,9.39 -0.11,19.96 -1.04,29.27 -0.37,3.68 -2.66,9 -2.59,12.63 0.16,8.36 -6.92,8.39 -14.82,8.39 -3.26,-5.26 -1.12,-3.88 -2.02,-10.65l-3.96 -20.03c-1.55,-4.84 -2.65,-3.38 -4.31,-7.49 -3.4,-8.43 -2.31,-11.22 -2.82,-21.94 -0.18,-3.69 -1.04,-6.83 -1.25,-10.8 -0.22,-4.13 -0.85,-7.21 -1.73,-10.29l-1.82 -10.86c-1.7,-12.39 -1.45,-22.3 -2.6,-33.66 -0.79,-7.84 -0.49,-15.06 -1.53,-22.65 -0.78,-5.69 0.37,-16.42 -7.3,-16.42 -3.58,5.78 -1.8,4.91 -2.59,12.73 -0.38,3.78 -1.17,9.36 -1.18,13.58 -0.02,13.09 -0.58,29.64 -2.74,42.28 -0.71,4.13 -0.55,9.45 -2.13,12.56 -2.48,4.88 -6.24,3.46 -8.42,5.75 -1.96,2.06 -1.66,8.83 -2.35,12.31 -2.3,11.59 0.35,12 -5.51,31.86 -2.16,7.31 -1.52,20.28 -1.92,28.31 -0.15,3 -0.61,3.24 -0.65,6.72 -0.03,2.46 0.11,5.03 0.05,7.48l-3.14 33.75c-2.22,-1.76 -1.21,-3.43 -1.69,-7.63 -0.35,-3.01 -0.76,-5.92 -0.83,-8.56 -0.66,-24.29 -0.64,-48.69 -1.85,-72.96 -0.28,-5.7 0.48,-12.62 -0.09,-18.14l-1.14 -27.14c0.01,-5.73 -0.94,-11.64 -1.24,-16.89 -0.28,-4.98 -0.67,-3.72 -1.47,-7.86 -1.16,-5.98 -2.93,-44.36 -2.93,-52.89l-0.64 -18.23c0.25,-4.37 0.79,-3.72 0.19,-8.29 -1.47,-11.17 1.32,-20.91 -3.3,-42.37 -2.92,0.84 -2.28,2.71 -2.86,6.36l-2.38 15.66c-0.57,3.11 -0.85,4.24 -4.12,4.32 -0.56,-2.58 -1.02,-3.69 -1.24,-6.76 -0.23,-3.33 -0.56,-4 -1.02,-7 -1.87,-12.06 -0.32,-33.41 -1.58,-45.57 -0.44,-4.28 -0.83,-10.44 -1.16,-14.96 -0.35,-4.83 -2.46,-7.59 -3.02,-12.27 -0.67,-5.58 -2.02,-7.13 -2.88,-12.42 -0.81,-4.99 -0.4,-9.56 -3.47,-11.78 -2.09,4.72 -1.87,16.96 -1.87,24.31 0,4.28 -0.01,8.56 0.01,12.84 0.02,5.03 -0.67,7.1 -0.64,12.14 0.06,10.37 0.84,43.88 -0.16,51.83 -0.92,7.25 -0.35,17.07 -1.26,24.98l-2.28 23.2c-0.57,8.47 -1.19,15.15 -2.02,23.48 -0.71,7.17 -0.69,16.81 -1.19,24.38 -0.3,4.58 -0.31,7 -3.7,9.51 -7.3,5.42 -4.18,23.83 -5.09,32.99 -0.37,3.68 -0.83,7.74 -1.33,12.07 -0.44,3.81 -1.46,7.25 -2.17,10.48 -2.35,10.67 -3.28,24.67 -3.25,35.66 0.01,4.73 -0.88,7.09 -4.33,8.15 -11.83,3.6 -7.7,-5.95 -9.37,-14.31 -0.79,-3.94 -0.46,-7.44 -1.04,-11.7 -0.57,-4.15 -0.52,-7.6 -1.09,-11.66 -0.52,-3.75 -0.31,-7.36 -1.44,-11.27 -1.47,-5.09 -1.48,-4.67 -1.48,-11.23 -7.11,-1.79 -11.62,1.45 -13.22,-8.03 -0.43,-2.54 0,-4.93 -0.52,-8.84 -0.56,-4.26 -1.62,-4.67 -2.53,-8.08 -0.69,-2.59 -0.71,-7.45 -1.1,-10.29 -0.79,-5.73 -0.6,-13.84 -1.83,-19.63 -0.65,-3.04 -0.67,-6.3 -3.9,-6.59 -0.33,4.36 -2.23,10.8 -2.03,15.26 0.12,2.76 0.17,2.69 -0.2,5.28 -1.17,8.37 0.01,25.35 -2.74,32.84 -1.45,3.95 -1.98,3.42 -2.81,9.12l-2.17 21.29c-1.09,14.75 -0.66,31.49 -0.66,47.24 0,8.48 -0.63,14.84 -0.63,23.64 0,3.92 0.18,8.31 0.01,12.17 -0.14,3.17 -0.17,7.24 -3.13,8.1 -3.22,-2.55 -2.52,-10.24 -2.49,-16.22 0.04,-7.13 -1.03,-18.33 -1.98,-25.56 -0.21,-1.59 -0.33,-2.04 -0.62,-3.98l-0.5 -2.42c-2.26,-6.37 -3.36,-16.04 -4.24,-22.91l-0.79 -18.06c0.01,-2.93 0.07,-5.9 0.04,-8.82 -0.02,-1.83 -1.77,-14.68 -2.22,-15.84 -1.52,-3.94 -7.3,-2.89 -9.82,-7.61 -3.55,-6.65 -2.12,-24.84 -3.34,-33.54 -0.79,-5.68 -0.26,-12.09 -0.26,-17.95 0,-6.82 -0.64,-10.94 -0.63,-17.56 0.11,-51.19 -4.22,-36.61 -5.65,-48.6 -0.4,-3.34 -2.56,-10.96 -4.96,-12.87 -2.28,1.8 -2.48,11.45 -2.52,14.83l0.05 42.6c-0.01,3.71 -0.5,4.34 -0.65,7.4 -0.14,2.81 0.06,5.96 0.03,8.81 -0.09,8.04 -1.88,23.01 -3.32,30.85l-1.99 14.73c-2,13.13 -0.26,27.12 -1.68,40.74 -0.95,9.13 -0.69,22.95 -1.14,32.53 -0.37,7.59 -6.57,6.35 -7.4,1.9 -0.54,-2.89 -0.11,-13.15 -0.1,-16.77 0.02,-6.02 -0.66,-10.56 -1.16,-15.63 -0.75,-7.63 0.45,-8.27 -2.65,-14.02 -1.92,-3.56 -0.93,-2.48 -1.23,-7.44 -0.13,-2.1 -0.8,-5.85 -1.02,-7.67l-2.68 -22.76c-0.42,-11.6 -6.38,3.76 -6.23,-35.81 0.02,-5.38 -1.04,-10.6 -1.26,-15.53 -0.61,-13.84 -4.43,-36.46 -4.39,-46.58 0.08,-19.16 -2.57,-46.26 -2.5,-64.83 0.04,-9.28 -0.38,-23.78 -1.39,-32.27 -0.67,-5.68 -2.44,-8.34 -3.59,-13 -2.26,1.29 -2.17,1 -3.38,3.78 -0.89,2.05 -1.24,3.53 -1.53,5.77l-1.96 27.59c-0.22,4.48 0.03,9.65 0.03,14.21l-0.65 14.17c-0.15,3 -0.61,3.24 -0.65,6.72 -0.03,2.46 0.11,5.03 0.04,7.48 -0.11,4.12 -1.05,9.44 -1.25,13.51 -0.24,4.87 -0.31,8.74 -3.14,10.78 -1.8,-1.43 -2.22,-4.32 -2.51,-7.41 -0.42,-4.4 -2.28,-20.84 -4.98,-22.98 -2.36,4.81 -2.5,25.04 -2.5,31.07l-0.65 16.19c-0.01,7.01 -0.43,10.28 -1.06,15.74 -0.71,6.13 -0.14,9.79 -2.06,14.66 -0.9,2.29 -1.51,3.87 -1.78,6.85 -1.64,18.22 -3.2,51.59 -3.2,70.16l-1.5 89.45c-0.24,3.1 0.46,4.13 -1.62,5.78 -1.95,-9.07 -1.13,-21.11 -2.33,-30.57 -0.69,-5.45 0.22,-11.15 -0.2,-16.67l-1.86 -47.29c-0.17,-5.92 -0.47,-10.2 -0.6,-15.56 -0.08,-3.43 -0.61,-3.74 -0.64,-7.41 -0.06,-7.9 -1.25,-14.24 -2.66,-22.11 -0.76,-4.21 -0.76,-9.7 -1.44,-14.66 -1.39,-10.17 -0.38,-21.38 -0.88,-31.46 -0.16,-3.14 -0.66,-4.17 -0.64,-8.09 0.05,-12.92 0.85,-26.58 -1.13,-39.3 -0.68,-4.38 -1.63,-8.67 -3.39,-12.54 -2.37,-5.18 -5.64,-1.84 -7.89,-8.34 -1.06,-3.06 -1.88,-10.03 -1.93,-14.12 -0.06,-5.34 -0.62,-9.98 -0.62,-16.21l-0.61 -96.59c0.03,-5.56 -0.64,-9.37 -0.63,-15.53l-1.28 -45.22c-0.44,-6.92 -5.26,-17.23 -6.33,-25.57l-3.63 -13.63c-1.02,13.22 -1.31,18.01 -1.25,31.75 0.03,5.82 -0.63,9.34 -0.63,15.53 0.03,26.53 1.31,54.85 0,81.05 -0.16,3.14 -0.66,4.17 -0.64,8.09 0.05,13.04 0.12,26.3 -1.24,39.19 -0.56,5.31 -0.33,9.68 -0.62,15.54 -0.21,4.17 -0.92,10.77 -1.21,14.89l-3.14 62.12c-0.01,3.71 -0.5,4.34 -0.65,7.4l0 24.32c0,6.15 -0.66,9.97 -0.63,15.52 0.06,10.68 1.04,38.2 -0.77,47.8 -0.41,2.13 -3.97,11.17 -6.83,6.44 -1.93,-3.21 -1.56,-30.82 -2.94,-38.09 -0.45,-2.4 -0.88,-4.53 -1.23,-6.77 -0.78,-4.9 -0.93,-9.37 -1.44,-14.66l-1.23 -14.87c-1.22,-12.22 0.29,-25.4 -2.52,-37.8 -0.48,-2.14 -1.34,-4.25 -1.76,-6.2l-1.25 0c-0.48,6.21 -2.57,8.26 -2.5,19.58l-0.77 20.78 -3.24 18.78c-1.16,6.08 -1.11,13.06 -1.97,19.48 -0.5,3.75 0.03,7.43 -0.35,11.1 -1.04,10.01 -1.2,21.2 -1.15,31.17 0.02,4.55 -0.61,6.13 -0.66,10.1 -0.09,8.3 2.2,24.1 -3.72,28.39 -3.73,-1.08 -5.94,-6.44 -5.62,-10.74 0.93,-12.58 -0.01,-6.29 -0.02,-14.91l-3.36 -61.2c-1.33,-9.47 -0.07,-21.5 -1.08,-31.25 -1.02,-9.8 -0.63,-20.64 -1.15,-31.17l-3.11 -29.05c-2.22,-13.95 -2.78,-30.17 -3.11,-45.27 -0.09,-4.21 -1.53,-10.35 -3.77,-12.13 -3.61,7.39 -1.62,9.45 -2.59,18.81 -0.65,6.29 -0.55,13.74 -0.53,21.04 0.01,7.37 -0.63,13.04 -0.63,20.94 0.01,10.41 -1.04,19.87 -2.86,29.33 -1.8,9.39 -1.75,19.43 -2.94,29.24 -0.69,5.76 -0.36,14.56 -0.98,20.55 -1.41,13.6 0.59,28.77 -0.09,42.45 -0.32,6.44 -1.28,13.23 -1.25,20.26 0.02,7.23 1.21,24.91 -1.44,30.87 -1.19,2.68 -2.62,4.41 -3.49,7.03 -1.98,6 -2.17,11.02 -3.54,17.78 -0.59,2.9 -2.05,5.26 -2.93,7.63 -1.9,5.09 -2.91,23.24 -2.98,29.2 -0.04,3.55 0.18,7.35 0.05,10.86 -0.15,3.91 -0.91,5.11 -3.15,6.73 -6.37,-1.6 -4.11,-6.87 -3.77,-12.92 0.09,-1.55 -0.19,-3.3 -0.25,-3.76 -1.22,-9.04 -0.36,-21.4 -0.35,-30.59 0.02,-6.47 -0.63,-10.31 -0.62,-16.89 0.01,-11.72 -0.15,-23.54 -1.43,-34.25 -0.62,-5.2 -0.94,-10.94 -1.78,-16.3 -0.65,-4.13 -1.68,-11.06 -1.79,-15.63 -0.11,-4.93 -0.53,-12.76 -1.07,-17.08 -0.98,-7.76 -0.69,-45.84 -0.77,-53.2 -0.04,-3.83 -0.67,-4.67 -0.67,-8.73l0.05 -26.39c-0.06,-5.09 -1.08,-11.77 -1.27,-16.87 -0.17,-4.65 -0.38,-10.81 -5,-12.15 0.12,-5.85 0.72,-5.22 -3.57,-8.97 -2.74,-2.39 -3.33,-5.48 -3.3,-10.61 0.02,-4.99 -0.63,-7.97 -0.62,-13.52l-0.6 -41.9c-0.09,-3.33 -0.57,-3.37 -0.67,-6.71 -0.06,-2.18 0.15,-4.58 -0.01,-6.74 -0.29,-3.8 -1.21,-8.77 -1.23,-12.85 -0.05,-9 -2.19,-16.39 -3.16,-25 -0.69,-6.14 -0.69,-17.57 -1.65,-25.18l-0.8 -13.32c-0.12,-2.4 0.13,-5.04 0.01,-7.44 -0.15,-2.98 -0.57,-2.81 -0.65,-6.06 -0.12,-4.99 -1,-22.17 -3.73,-24.33 -1.78,2.88 -1.09,2.8 -1.62,7.03l-1.52 32.13c0.07,19.24 1.05,58.61 -0.8,74.11l-2.31 13.7 -1.87 0c-0.59,-2.74 -0.76,-7 -1.07,-9.64 -2.65,-22.27 0.77,-44.89 -3.92,-66.67l-1.25 0c-2.97,13.79 -2.09,27.18 -3.15,41.16 -0.2,2.59 -0.54,7.46 -0.95,10.45 -0.99,7.15 -0.17,14.57 -1.15,21.72 -1.72,12.56 -4.79,39.88 -4.74,52.28l-3.2 109.33c-2.22,22.02 -2.41,43.67 -2.41,66.29 0,3.7 0.23,7.66 -0.26,11.2 -1.24,8.84 1.46,18.1 0.31,20.56 -0.93,2 -3.81,3.65 -5.66,4.71 -2.65,-1.92 -3.15,-2.68 -3.16,-7.39 -0.02,-17.21 -1.27,-34.87 -1.21,-52.05l-0.62 -20.26c-0.65,-13.12 -2.28,-25.3 -4.29,-37.91l-1.97 -19.48c0.01,-4.8 0.11,-5.86 -0.84,-9.9 -0.76,-3.2 -1.73,-5.22 -2.26,-7.69 -5.13,1.48 -3.71,23.63 -4.28,29.14 -0.53,5.13 0.18,11.5 -0.09,16.79 -0.48,9.54 -0.91,20.63 -3.34,29.48 -3.07,11.2 -4.2,33.19 -4.15,45.48 0.04,11.67 -0.63,21.2 -0.63,33.09 0,12.78 0.38,90.77 -2.5,97.26 -2.31,-0.91 -2.46,-4.22 -2.52,-7.4 -0.07,-3.5 0.13,-5.76 -0.34,-9.09 -0.42,-3.04 -0.24,-6.03 -0.24,-9.19 -0.01,-6.39 -0.84,-11.53 -1.31,-18.17l-1.94 -16.82c-0.38,-3.62 -0.84,-4.37 -1.95,-7.35l-2.85 -16.5c-1.07,-10.66 -0.34,-38.28 -1.99,-45.8 -0.76,-3.46 -1.14,-3.94 -3.73,-5.42 -1.91,3.07 -3.56,6.18 -4.21,10.31 -1.6,10.16 -5.02,8.01 -5.18,22.76l-2.03 40.36c-0.48,4.12 0.21,8.06 -3.57,10.32 -3.52,2.1 -4.86,4.06 -9.36,4.06 -2.65,-5.42 -1.38,-7.05 -1.88,-14.18 -0.37,-5.2 -3.07,-6.67 -4.02,-11.19 -0.62,-2.98 -0.43,-3.86 -1.33,-6.66 -4.33,-13.39 -7.8,-8.22 -11.5,-7.15 0,-3.3 1,-5.06 0.58,-8.7 -0.33,-2.93 -1.4,-3.85 -2.02,-7.3 -0.41,-2.28 -0.59,-5.62 -1.1,-8.26 -0.46,-2.4 -1.06,-4.72 -1.19,-7.49 -0.28,-6.07 -0.87,-11.31 -1.31,-17.5 -0.41,-5.6 0.11,-12.28 -4.32,-13.56 -3.79,2.75 -2.93,8.4 -3.1,14.88 -0.09,3.46 -0.63,4.14 -0.65,8.08 -0.01,5.64 -1.24,10.31 -2.6,15.42 -1.94,7.31 -3.87,31.87 -4.27,39.96 -0.29,5.73 0.41,11.67 -0.36,17.17 -0.48,3.43 -1.69,30.4 -2.76,32.81 -4.98,-0.45 -2.58,-3.76 -2.7,-7.28 -0.09,-2.61 -0.98,-7.13 -1.06,-10.26 -0.61,-22.46 0.02,-45.09 0.02,-67.56 0,-8.34 -0.63,-14.44 -0.62,-22.29l-0.65 -21.59c-0.42,-15.8 -4.08,-28.78 -4.35,-40.54 -0.29,-12.39 -1.92,-29.35 -1.87,-43.23 0.03,-7.4 -0.8,-37.54 -1.61,-43.52l-2.23 -20.55c-1.09,-6.92 -2.48,-23.03 -2.4,-31.17 0.04,-4.27 -0.27,-6.36 -0.68,-10.07 -0.49,-4.47 0.71,-16.17 -4.32,-17.62 -2.74,6.17 -2.53,28.31 -2.5,38.5 0.02,6.99 -0.63,12.63 -0.62,20.26 0,10.46 -1.18,19.13 -1.24,29.76 -0.02,3.87 -0.21,4.67 -0.78,7.85 -0.57,3.23 -0.85,4.71 -1.16,8.93 -0.67,9.17 -2.46,18.44 -2.44,27.76l-0.85 18.97c-0.48,3.96 -0.3,13.22 -0.37,19.55 -0.05,3.9 -0.68,5.09 -0.67,9.41l-0.61 29.73c0.01,16.8 1.29,47.2 -0.45,60.97 -0.73,5.74 1.78,34.11 -2.67,37.64 -3.69,-2.68 -1.93,-6.96 -1.85,-12.13 0.09,-5.84 -0.67,-8.96 -0.65,-14.88 0.04,-10.32 -0.64,-19.45 -0.62,-30.39 0.02,-5.97 -0.66,-9.15 -0.63,-14.86 0.04,-6.32 -0.55,-9 -0.99,-14.46 -0.25,-3.12 0.66,-2.91 0.14,-6.85 -0.28,-2.11 -0.72,-4.82 -0.91,-6.5 -0.98,-8.77 -4.53,-36.31 -4.49,-41.07 0.13,-14.13 -1.92,-29.32 -1.87,-43.91l-0.63 -30.39c-0.15,-3.91 -0.05,-9.26 -3.12,-11.48 -2.76,4.45 -2.3,10.81 -3.3,16.02 -1.68,8.8 1.41,2.46 -3.04,16.3l-2.42 16.96c-0.19,10.27 -1.91,28.29 -1.86,37.16 0.03,6.53 0,13.06 0,19.59 0,7.25 -0.65,11.85 -0.62,18.91 0.02,4.37 0.13,14.8 -2.5,16.88 -3.13,-0.91 -2.81,-3.12 -4,-6.48 -1.14,-3.22 -2.42,-4.06 -4.22,-6.24 -2.96,-3.57 -1.77,-13.32 -1.77,-19.7 0,-7.2 -0.01,-14.41 0,-21.61 0.01,-7.54 -0.63,-13.02 -0.63,-20.94 0,-29.06 -1.24,-56.22 -1.24,-85.1 0,-20.54 -0.2,-63.87 -3.7,-82.45l-4.67 -59.79c-0.58,-4.1 -0.54,-15.48 -3.5,-17.82 -2.57,2.04 -1.74,5.64 -1.85,10.15 -0.09,3.85 -0.65,6.64 -0.65,11.46 0.02,8.56 -0.63,14.54 -0.62,22.96l0.01 35.81c0.02,4.73 -0.65,6.43 -0.65,10.77 -0.02,15.67 -0.02,32.49 -1.68,46.14l-4.54 74.78c0.01,3.81 0.07,7.7 0.03,11.51 -0.05,4.1 -0.67,6.54 -0.65,11.45 0.03,7.56 0.79,15.95 -0.28,23.37 -0.61,4.29 0.46,5.86 0.31,10.41 -0.13,3.93 -0.67,6.59 -0.66,11.47 0.02,11.87 0.83,51.52 -0.27,59.16 -0.8,5.55 0.71,6.52 0.24,11.01 -0.35,3.41 -1.59,5.85 -4.96,6.15 -4.83,-3.5 -1.71,-9.72 -2.76,-17.28 -0.45,-3.26 -0.49,-7.07 -0.88,-9.86l-3.25 -28.22c-0.5,-6.54 -1.27,-12.26 -1.22,-19.61 0.06,-9.7 -1.87,-20.94 -1.52,-30.2l-1.25 -28.93c-1.07,-8.17 0.63,-11.95 -4.72,-15.83 -2.02,1.16 -3.23,2.95 -3.62,5.54 -0.77,5.12 0.37,5.98 -1.55,16.56 -2.52,13.84 -2.46,64.31 -4.64,76.03 -1.9,10.16 -3.99,19.66 -4.55,30.87 -0.7,14.06 1.4,18.63 -4.57,31.53 -3.73,8.05 -2.74,4.96 -3.62,14.31 -0.21,2.19 -0.89,4.79 -1.35,7.32 -0.43,2.37 -0.22,5.19 -0.68,8.04 -0.89,5.52 -3.5,8.33 -4.04,13.87l-2.62 32.97c-0.01,7.18 1.11,11.16 -3.1,14.2 -2.5,-1.81 -2.88,-3.41 -3.12,-7.48 -0.11,-1.94 0.12,-3.28 0.26,-4.9l-0.26 -24.77c-0.31,-6.27 -1.29,-13.54 -1.26,-20.25 0.11,-23.91 -4.43,-29.45 -4.96,-37.86 -0.56,-8.98 -1.83,-21.33 -1.93,-30.33 -0.08,-7.29 1.02,-23.89 -4.97,-27.04 -2.78,-1.46 -4.94,-0.11 -6.7,-3.56 -1.06,-2.07 -1.5,-6.48 -1.86,-8.8 -1.2,-7.74 -0.7,-12.76 -0.25,-20.19 0.21,-3.5 -1.55,-5.11 -1.81,-8.7 -0.3,-4.08 0.89,-5.59 0.65,-10.08 -0.19,-3.49 -0.89,-5.67 -0.65,-10.15 0.19,-3.52 0.65,-5.65 0.63,-10.13 -0.06,-17.15 -0.21,-35.26 -1.86,-52.02 -0.41,-4.19 -1.65,-5.29 -1.87,-8.79 -0.35,-5.44 0.5,-6 -2.56,-9.39l-1.96 -1.93c-0.83,-0.81 -1.46,-1.45 -2.23,-2.31 -2.79,-3.12 -1.61,-3.46 -2.07,-8.56 -0.31,-3.36 -1.64,-5.15 -1.82,-8.85 -0.22,-4.48 0.56,-6.41 0.67,-10.12 0.3,-10.91 -0.65,-20.46 -0.65,-31.77l-0.62 -64.16c0,-33.97 -0.16,-59.69 -2.54,-93.83l-3.09 -29.07c-0.04,-6.62 -1.25,-13.83 -1.26,-20.25 -0.02,-13.85 -0.97,-27.52 -1.83,-41.25 -0.36,-5.83 -0.39,-14.19 -3.77,-16.86l-1.9 24.29c-0.2,18.29 0.83,52.21 0.03,68.24 -0.15,3.06 -0.64,3.69 -0.65,7.4 -0.01,10 0.95,24.15 -0.34,33.4 -0.76,5.46 -0.27,11.63 -0.26,17.28l-5.45 112.97c-0.71,5.58 0.33,11.6 -0.43,17.09l-0.64 32.32c1.04,5.24 2.16,8.13 1.43,15.14l-0.44 40.04c-0.39,2.45 -1.28,3.92 -1.92,6.04 -1.37,4.53 -0.02,9.66 -0.04,15.48l0 119.55c0.02,6.63 0.85,10.84 -4.47,12.27l-2.4 -2.14c0,-8.02 0.71,-16.95 -0.36,-24.6 -1.06,-7.59 -0.59,-15.74 -1.63,-23.23l-2.67 -22.1 -2.83 -71.9c0,-11.93 0.61,-40.13 -5,-44.57 -0.94,2.11 -2.4,7.89 -3.01,10.25l-4.05 34.12c-0.43,3.32 -0.05,9.24 -0.68,12.78 -0.41,2.31 -0.91,3.09 -1.02,5.65 -0.27,6.13 -0.11,23.66 -4.36,27.03 -6.29,-1.81 -1.03,-18.89 -8.11,-20.94 -0.89,4.13 -1.89,6.71 -1.9,12.13 -0,4.29 0.38,9.17 -0.15,13.35 -0.9,7.13 -0.55,18.61 -1.13,26.47 -0.94,12.81 -3.2,15.13 -4.43,22.9 -2.57,16.4 -3.01,35.31 -3.01,52.12l-0.59 13.55c-0.08,3.04 0.69,2.59 0.62,6.02 -0.06,2.91 -0.57,2.77 -0.67,6.07 -0.22,7.92 1.13,19.31 0.31,25.27 -1.75,12.6 3.81,20.67 -5.28,20.67 -4.87,-7.86 -0.41,-7.01 -2.87,-19.87 -0.66,-3.47 -0.79,-7.27 -1.93,-10.07 -1.6,-3.95 -2.21,-3.95 -2.71,-9.22 -0.7,-7.37 -1.89,-14.19 -1.86,-22.3 0.01,-4.01 0.11,-8.2 0.03,-12.19 -0.22,-11.43 -7.41,-10.24 -8.15,1.37 -0.4,6.33 -2.3,5.74 -3.83,10.04 -1.97,5.53 -3.04,31.74 -3.04,39.27 0,2.36 0.12,5.11 0,7.43l-1.26 19.57c0.02,4.78 -1.04,8.35 -1.86,12.17 -3.67,-0.93 -5.67,1.29 -7.48,-3.44 -1.52,-4 -0.31,-4.77 -0.79,-9.17 -1,-9.34 -0.99,-14.72 -1.09,-24.58 -0.05,-5.13 -0.65,-4.96 -0.65,-10.74 0.02,-16.31 -0.63,-70.27 -3.85,-84.32 -1.25,-5.46 -4.71,-15.72 -4.89,-20.38 -0.21,-5.64 -1.48,-15.6 -4.37,-20.27 -2.44,1.94 -1.82,4.48 -2.41,8.2 -0.57,3.64 -0.74,5.02 -0.72,9.35 0.08,15.93 -0.05,32.72 -2.05,48.43 -0.49,3.82 0.4,5.99 -2.94,6.95 -2.8,-2.22 -0.9,-7.9 -4.37,-13.51l-3.12 0c-2.75,4.44 -2.24,4.06 -2.5,10.8 -0.14,3.55 -1.1,7.81 -1.61,11.77 -1.62,12.62 -6.01,17.53 -5.89,34.15 0.02,3.77 0.44,8.46 -3.93,9.15 -7.28,1.15 -6.67,-11.91 -6.74,-12.44 -0.26,-2.06 -0.84,-2.53 -1.44,-5.19l-2.89 -23.9c-0.07,-7.36 -0.3,-19.24 -2.22,-24.61 -0.92,-2.58 -1.1,-1.95 -1.89,-4.71 -1.6,-5.62 -2.17,-11.96 -2.11,-17.98 0.06,-5.39 -3.37,-16.71 -6.13,-20.39 -2.03,-2.71 -1.04,-0.72 -1.59,-5.04 -1.44,-11.34 -0.25,-34.8 -0.39,-46.86l-4.82 -62.32c-0.56,-3.99 -0.98,-8.41 -1.34,-12.06 -1.56,-15.91 -2,-35.51 -1.98,-51.89 0.01,-9.69 -0.74,-16.12 -2.5,-24.31l-1.25 0c-1.23,5.7 -1.91,6.57 -1.86,14.2 0.06,8.8 -1.26,36.08 -2.34,44.74 -1.49,12.04 -0.23,30.55 -1.53,42.92 -0.32,3.07 0.33,10.8 -2.39,12.95 -1.69,-3.8 -0.92,-6.83 -2.11,-11.22 -1.12,-4.15 -1.75,-6.33 -6,-6.33 -0.51,2.35 -1.36,4.61 -1.7,6.93 -2.02,13.44 -0.37,7.15 -3.9,22.12 -0.54,2.27 -1.2,4.61 -1.89,6.74 -2.02,6.2 -1.88,17.46 -1.87,24.31 0.01,5.85 -0.02,11.71 0.01,17.57 0.03,6.06 -0.63,10.29 -0.63,16.88 0,11.68 0.16,23.48 0.02,35.15 -0.04,3.75 -0.63,4.3 -0.67,8.05 -0.03,2.91 0.12,5.94 0.04,8.83 -0.13,4.89 -1.36,10.98 -1.8,15.61 -1.02,10.88 -1.06,21.78 -2.42,32.5 -1.34,10.58 -0.36,22.07 -1.52,32.12 -0.29,2.51 -1.03,4.67 -1.16,7.54 -0.13,2.96 0.22,5.61 -0.23,8.53 -0.69,4.51 -2.16,9.77 -2.26,14.44 -3.22,-0.93 -2.74,-8.71 -3.03,-11.58 -0.42,-4.13 -0.1,-10.41 -0.09,-14.76 0.02,-5.73 -0.66,-8.59 -0.63,-14.18 0.08,-16.39 0.1,-24.89 -2.41,-41.29 -1.73,-11.33 -5.7,-11.08 -5.7,-22.87 -2.5,-1.81 -6.95,-3.55 -7.87,-7.02 -0.2,-0.74 -0.88,-12.76 -0.87,-13.92 0.03,-10.13 -1.24,-12.26 -2.68,-20.06 -1.02,-5.54 -2.88,-14.69 -2.94,-19.78l-2.54 -34.41c-0.32,-2.82 -0.71,-3.35 -3.7,-3.43 -2.53,11.74 -1.61,34.85 -3.31,48.43 -0.47,3.74 -0.56,8.34 -1.59,11.78 -0.59,1.96 -1.3,2.74 -1.72,4.89l-2.11 29.46c0.05,47.14 -4.74,27.69 -7.87,43.5 -1.94,9.81 -7.41,25.73 -7.69,30.18 -0.68,10.96 -3.93,9.26 -11.1,5.82 -3.18,-1.53 -3.78,-1.92 -3.95,-6.54 -0.18,-5.05 -4.12,-20.5 -5.5,-25.8 -1.45,-5.59 -1.18,-12.72 -2.23,-18.52 -0.69,-3.8 -0.41,-5.25 -2.87,-7.03 -3.41,2.7 -4.04,14.63 -4.38,20.93 -0.21,3.85 -1.77,6.52 -3.09,9.49 -1.19,2.68 -1.2,7.04 -1.88,10.12 -3.52,15.97 0.95,38.45 -5,44.56 -2.3,-0.2 -2.67,-0.45 -3.79,-1.98 -2.88,-3.91 -3.42,-8.89 -3.72,-14.21 -0.44,-7.65 -3,-11.74 -3.1,-20.29 -0.05,-4.44 -1.07,-6.83 -1.26,-10.8 -0.18,-3.8 0.26,-7.46 -0.26,-11.2 -0.57,-4.04 -0.06,-7.67 -0.44,-11.69 -0.3,-3.22 -1.75,-5.76 -2.42,-8.86 -3.15,0.28 -0.75,-0.04 -2.48,0.77 -3.2,1.48 -2.08,-0.39 -6.26,-0.77 -2.83,5.78 -1.61,14.73 -2.41,22.39 -0.51,4.89 -0.46,14.36 -1.51,23.35l-3.79 20.89c-1.37,2.39 -5.32,6.02 -7.32,8.28 -1.36,1.54 -3,2.87 -4.94,3.43 -7.46,-5.41 -1.52,-23.53 -9.99,-25.67 -3.25,2.35 -2.78,2.08 -3.24,7.3 -0.9,10.2 -4.84,14.99 -6.49,24.72 -1.1,6.52 -0.79,28.73 -3.72,33.8 -1,1.73 -0.63,1.52 -2.78,1.72 -0.57,-2.33 -0.62,-1.11 -1.48,-3.8 -2.07,-6.42 -1.15,-19.48 -5.03,-30.35 -0.98,-2.74 -1.5,-4.7 -1.97,-8 -2.22,-15.39 -1.45,-7.24 -4.35,-15.55 -1.15,-3.29 -0.32,-5.09 -2.27,-7.67 -1.79,-2.38 -3.81,-2.89 -6.23,-4.07 -3.05,-1.5 -2.92,-2.52 -3.02,-6.87 -0.12,-5.41 -2.33,-11 -3.28,-16.72 -1.24,-7.46 -2.37,-7.69 -3,-17.02 -0.37,-5.47 -1.12,-12.08 -3.7,-16.25 -4.33,3.14 -4.23,14.64 -4.93,21.68 -0.62,6.3 -2.37,6.57 -3.04,10.22 -0.54,2.87 1.26,12.09 -1.76,12.13l-4 -0.18c-2.2,0.08 -3,0.41 -4.26,1.52 -3.08,2.73 -1.65,5.38 -3.31,9.25 -1.5,3.48 -3.5,2.25 -4.59,7.87 -1.12,5.82 -0.42,12.04 -1.12,17.7l-1.08 17.74c0.03,3.4 0.98,8.55 -2.35,10.28l-8.25 3.23c-3.16,-5.11 -2.4,-5.66 -2.47,-13.54 -0.05,-5.06 -1.28,-8.8 -1.98,-13.4 -2.01,-13.27 -9.57,-7.7 -16.78,-12.92 0,-4.57 1.62,-4.84 -0.17,-9.26 -4.57,-11.23 -2.08,-8.27 -4.41,-16.85 -0.93,-3.41 -1.54,-4.29 -5.4,-4.29 -2.19,4.47 -1.62,4.56 -1.87,10.81 -0.16,3.96 -5.82,27.2 -7.39,29.84 -0.94,1.58 -2.07,2.08 -3.33,3.15l-5.33 6.39c-8.87,11.33 -2.99,13.01 -8.67,21.69 -6.64,10.17 -0.24,8.53 -12.48,11.52 -5.32,1.3 -4.04,1.23 -8.13,-2 -3.1,-2.44 -3.93,-1.17 -6.66,1.49 -5.61,5.48 -5.91,7.67 -7.68,16.69 -1.46,7.46 -4.35,10.51 -10.26,13.89z"/>
  <path class="fil4" d="M1973.65 429c-5.64,0 -11.07,0.44 -16.38,1.41 -5.32,0.98 -10.09,2.6 -14.22,4.77 -4.13,2.17 -7.38,4.88 -9.87,8.14 -2.5,3.26 -3.8,7.16 -3.8,11.72 0,6.94 1.74,12.37 5.21,16.27 3.47,3.91 8.79,7.27 15.84,10.2 7.06,2.93 15.84,5.86 26.37,8.79 10.53,2.93 22.79,6.83 36.89,11.61 18.01,6.07 34.5,13.45 49.37,22.24 14.86,8.79 27.56,19.09 38.08,30.92 10.52,11.83 18.66,25.17 24.52,39.93 5.86,14.76 8.79,31.25 8.79,49.48 0,22.57 -4.78,43.18 -14.33,61.95 -9.55,18.77 -22.24,34.94 -38.19,48.39 -15.95,13.45 -34.39,23.87 -55.22,31.36 -20.83,7.59 -42.43,11.28 -64.78,11.28 -19.1,0 -37.22,-2.82 -54.47,-8.46 -17.25,-5.64 -33.09,-13.56 -47.52,-23.65 -14.43,-10.09 -27.12,-22.13 -37.97,-36.13 -10.85,-14 -19.31,-29.19 -25.39,-45.68l33.85 -19.53c5.43,-3.04 11.28,-5.53 17.47,-7.38 6.19,-1.84 12.37,-2.71 18.66,-2.71 9.33,0 17.8,1.95 25.28,5.86 7.48,3.91 14.76,8.14 21.92,12.7 7.16,4.56 14.54,8.79 22.13,12.69 7.59,3.91 16.28,5.86 26.04,5.86 6.51,0 13.67,-1.08 21.37,-3.15 7.7,-2.06 14.87,-4.99 21.48,-8.9 6.62,-3.91 12.04,-8.79 16.38,-14.54 4.34,-5.75 6.51,-12.37 6.51,-19.96 0,-7.16 -1.95,-13.02 -5.97,-17.58 -4.02,-4.56 -9.44,-8.57 -16.28,-11.93 -6.83,-3.37 -14.76,-6.4 -23.65,-9.22 -8.9,-2.82 -18.23,-6.19 -27.99,-10.09 -16.06,-6.07 -31.9,-12.69 -47.53,-19.85 -15.62,-7.16 -29.62,-16.06 -41.99,-26.58 -12.37,-10.52 -22.35,-23.33 -30.06,-38.41 -7.7,-15.08 -11.61,-33.74 -11.61,-56.09 0,-21.05 4.34,-39.82 12.91,-56.2 8.57,-16.38 19.85,-30.16 33.96,-41.44 14.1,-11.28 30.27,-19.96 48.39,-25.93 18.12,-5.97 36.68,-8.9 55.77,-8.9 13.89,0 27.45,2.28 40.58,6.94 13.13,4.67 25.5,10.74 37.22,18.23 11.72,7.49 22.68,16.06 32.87,25.61 10.2,9.55 19.42,19.31 27.67,29.3l-32.87 27.67c-6.51,5.65 -13.24,9.66 -20.29,12.05 -7.05,2.39 -14.97,3.58 -23.65,3.58 -6.94,0 -13.02,-0.87 -18.23,-2.6 -5.21,-1.74 -10.09,-3.69 -14.65,-5.75 -4.56,-2.06 -9.11,-3.91 -13.67,-5.64 -4.56,-1.74 -9.55,-2.61 -14.97,-2.61zm214.83 130.85c0,-21.92 2.93,-43.07 8.68,-63.37 5.75,-20.29 13.78,-39.17 24.2,-56.74 10.41,-17.58 22.89,-33.64 37.43,-48.07 14.54,-14.43 30.7,-26.8 48.5,-37.11 17.8,-10.31 36.89,-18.23 57.29,-23.87 20.4,-5.64 41.56,-8.46 63.47,-8.46 21.91,0 43.07,2.82 63.48,8.46 20.4,5.64 39.49,13.56 57.29,23.87 17.79,10.31 33.96,22.68 48.5,37.11 14.54,14.43 27.02,30.49 37.43,48.07 10.42,17.57 18.56,36.46 24.31,56.74 5.75,20.29 8.57,41.45 8.57,63.37 0,21.92 -2.82,42.96 -8.57,63.25 -5.75,20.29 -13.89,39.28 -24.31,56.85 -10.41,17.58 -22.89,33.53 -37.43,47.96 -14.54,14.43 -30.71,26.8 -48.5,37.11 -17.8,10.31 -36.89,18.33 -57.29,23.98 -20.41,5.64 -41.56,8.46 -63.48,8.46 -22.13,0 -43.29,-2.82 -63.58,-8.46 -20.29,-5.64 -39.39,-13.67 -57.18,-23.98 -17.8,-10.31 -33.96,-22.68 -48.5,-37.11 -14.54,-14.43 -27.02,-30.38 -37.43,-47.96 -10.42,-17.57 -18.44,-36.56 -24.2,-56.85 -5.75,-20.29 -8.68,-41.33 -8.68,-63.25zm106.44 0c0,18.01 3.58,34.94 10.74,50.89 7.16,15.95 16.82,29.94 28.97,41.88 12.15,11.93 26.26,21.26 42.31,28.1 16.06,6.84 33.09,10.31 51.11,10.31 17.79,0 34.83,-3.47 51,-10.31 16.17,-6.83 30.27,-16.17 42.43,-28.1 12.15,-11.94 21.81,-25.93 28.97,-41.88 7.16,-15.95 10.74,-32.88 10.74,-50.89 0,-18.01 -3.58,-35.05 -10.74,-51 -7.16,-15.95 -16.82,-29.84 -28.97,-41.67 -12.15,-11.83 -26.26,-21.16 -42.43,-28.1 -16.17,-6.94 -33.2,-10.41 -51,-10.41 -18.01,0 -35.05,3.47 -51.11,10.41 -16.06,6.94 -30.16,16.28 -42.31,28.1 -12.15,11.83 -21.81,25.72 -28.97,41.67 -7.17,15.95 -10.74,32.98 -10.74,51zm559.87 45.57c0,11.72 2.39,22.79 7.16,33.2 4.77,10.42 11.17,19.53 19.2,27.34 8.03,7.81 17.36,14 27.88,18.56 10.53,4.56 21.59,6.83 33.31,6.83 11.72,0 22.89,-2.28 33.42,-6.83 10.52,-4.56 19.86,-10.74 28,-18.56 8.14,-7.81 14.54,-16.93 19.31,-27.34 4.78,-10.41 7.16,-21.48 7.16,-33.2l0 -278.63 106.44 0 0 278.63c0,26.69 -5.1,51.65 -15.3,74.98 -10.2,23.33 -24.09,43.72 -41.66,61.08 -17.58,17.36 -38.08,31.03 -61.63,41.12 -23.55,10.09 -48.83,15.19 -75.74,15.19 -17.8,0 -34.94,-2.28 -51.43,-6.83 -16.49,-4.56 -31.9,-11.07 -46.22,-19.42 -14.32,-8.35 -27.45,-18.33 -39.39,-30.06 -11.93,-11.72 -22.13,-24.74 -30.6,-38.95 -8.46,-14.22 -14.97,-29.51 -19.64,-45.9 -4.67,-16.38 -7.05,-33.42 -7.05,-51.21l0 -278.63 106.77 0 0 278.63zm821.25 187.81l-105.79 0 -222.97 -322.57 0 322.57 -106.12 0 0 -466.44 104.81 0c10.42,0 19.64,1.52 27.67,4.56 8.03,3.04 14.21,7.7 18.55,14l163.08 238.92c2.39,3.47 4.45,7.27 6.19,11.39 1.74,4.12 3.26,7.92 4.56,11.5 1.3,3.58 2.28,6.73 2.93,9.33 0.65,2.61 0.98,4.23 0.98,4.89l0 -294.58 106.11 0 0 466.44zm114.58 0l0 -466.44 193.02 0c21.48,0 42.31,2.71 62.39,8.24 20.07,5.54 38.73,13.46 56.09,23.65 17.36,10.2 33.31,22.35 47.74,36.57 14.43,14.21 26.69,29.94 36.89,47.2 10.2,17.25 18.12,35.8 23.76,55.66 5.65,19.85 8.47,40.58 8.47,62.06 0,21.48 -2.82,42.1 -8.47,61.95 -5.64,19.86 -13.56,38.41 -23.76,55.66 -10.2,17.25 -22.46,32.98 -36.89,47.2 -14.43,14.22 -30.38,26.37 -47.74,36.46 -17.36,10.09 -36.02,17.9 -56.09,23.44 -20.08,5.53 -40.91,8.35 -62.39,8.35l-193.02 0zm193.02 -106.76c17.15,0 33.53,-3.36 49.04,-9.98 15.52,-6.62 29.19,-15.63 41.02,-27.02 11.83,-11.39 21.16,-24.74 28.1,-40.15 6.94,-15.41 10.42,-31.79 10.42,-49.15 0,-17.36 -3.47,-33.74 -10.42,-49.15 -6.94,-15.41 -16.28,-28.86 -28.1,-40.36 -11.83,-11.5 -25.5,-20.61 -41.02,-27.23 -15.52,-6.62 -31.9,-9.87 -49.04,-9.87l-86.58 0 0 252.91 86.58 0z"/>
  <path class="fil5" d="M3478.4 1829.65l0 -258.31 106.9 0c11.9,0 23.43,1.5 34.55,4.57 11.11,3.06 21.45,7.45 31.06,13.1 9.61,5.65 18.44,12.38 26.44,20.25 7.99,7.87 14.78,16.58 20.43,26.14 5.65,9.56 10.04,19.83 13.16,30.82 3.12,11 4.69,22.47 4.69,34.37 0,11.9 -1.56,23.31 -4.69,34.31 -3.13,11 -7.51,21.27 -13.16,30.82 -5.65,9.56 -12.44,18.27 -20.43,26.14 -7.99,7.87 -16.82,14.6 -26.44,20.19 -9.61,5.59 -19.95,9.91 -31.06,12.98 -11.12,3.06 -22.65,4.63 -34.55,4.63l-106.9 0zm106.9 -59.13c9.49,0 18.57,-1.86 27.16,-5.53 8.59,-3.67 16.17,-8.65 22.71,-14.96 6.55,-6.31 11.72,-13.7 15.56,-22.23 3.85,-8.53 5.77,-17.61 5.77,-27.22 0,-9.61 -1.92,-18.69 -5.77,-27.22 -3.85,-8.54 -9.01,-15.98 -15.56,-22.35 -6.55,-6.37 -14.12,-11.42 -22.71,-15.08 -8.59,-3.67 -17.67,-5.47 -27.16,-5.47l-47.95 0 0 140.06 47.95 0zm319.43 -80.22c-1.32,1.93 -2.22,3.85 -2.7,5.77 -0.24,0.96 -0.36,1.86 -0.36,2.7 0.12,0.84 0.3,1.74 0.54,2.7 0.24,0.84 0.54,1.74 0.9,2.7 0.36,0.96 0.9,1.92 1.62,2.89 6.97,9.61 14.36,19.7 22.17,30.28 7.81,10.57 15.68,21.15 23.56,31.78 7.87,10.64 15.62,21.09 23.25,31.37 7.63,10.28 14.78,20.01 21.51,29.14l-48.13 0c-9.01,0 -16.82,-1.8 -23.43,-5.41 -6.61,-3.6 -12.2,-8.47 -16.76,-14.6l-42 -56.6c-0.96,-1.32 -1.74,-2.7 -2.35,-4.15 -0.6,-1.44 -1.14,-2.7 -1.62,-3.79 -0.48,-1.32 -0.9,-2.52 -1.26,-3.6 -0.36,1.2 -0.78,2.46 -1.26,3.78 -0.48,1.08 -1.02,2.28 -1.62,3.67 -0.6,1.38 -1.32,2.76 -2.16,4.09l-40.92 56.24c-4.81,6.49 -10.52,11.48 -17.19,15.02 -6.67,3.54 -14.48,5.35 -23.37,5.35l-48.67 0 89.95 -121.68c1.56,-2.04 2.52,-3.78 2.89,-5.17 0.36,-1.38 0.54,-2.41 0.54,-3.13l0 -0.9c0,-1.68 -0.36,-3.3 -1.08,-4.87 -0.72,-1.56 -1.56,-3 -2.52,-4.33l-87.43 -118.25 48.67 0c8.65,0 16.46,1.68 23.37,5.11 6.91,3.43 12.44,8.41 16.64,14.9l39.3 53.72c0.84,1.32 1.56,2.58 2.17,3.85 0.6,1.26 1.14,2.46 1.62,3.54 0.48,1.32 0.96,2.52 1.44,3.61 0.24,-0.96 0.6,-2.1 1.08,-3.43 0.36,-0.96 0.84,-2.16 1.38,-3.54 0.54,-1.38 1.26,-2.7 2.22,-4.03l39.12 -53.36c8.89,-13.58 22.41,-20.37 40.56,-20.37l48.31 0 -87.97 118.97zm98.43 -63.99l0 -55.16 202.61 0 0 55.16 -71.74 0 0 203.33 -58.94 0 0 -203.33 -71.93 0z"/>
  <path class="fil4" d="M1967.67 1053.99c-5.45,0 -10.69,0.42 -15.83,1.36 -5.13,0.94 -9.75,2.52 -13.73,4.61 -3.98,2.1 -7.13,4.72 -9.54,7.87 -2.41,3.14 -3.67,6.92 -3.67,11.32 0,6.71 1.68,11.95 5.03,15.73 3.35,3.77 8.49,7.02 15.31,9.85 6.81,2.83 15.31,5.66 25.47,8.49 10.17,2.83 22.02,6.6 35.65,11.22 17.41,5.87 33.34,13 47.7,21.49 14.36,8.49 26.63,18.45 36.8,29.88 10.17,11.43 18.03,24.32 23.69,38.58 5.66,14.26 8.49,30.19 8.49,47.81 0,21.81 -4.61,41.72 -13.84,59.86 -9.22,18.14 -21.49,33.76 -36.9,46.76 -15.41,13 -33.24,23.07 -53.36,30.3 -20.13,7.34 -41,10.91 -62.59,10.91 -18.45,0 -35.96,-2.73 -52.63,-8.18 -16.67,-5.45 -31.98,-13.1 -45.92,-22.85 -13.94,-9.75 -26.21,-21.39 -36.7,-34.91 -10.48,-13.52 -18.66,-28.2 -24.53,-44.14l32.71 -18.87c5.24,-2.93 10.91,-5.35 16.89,-7.13 5.97,-1.78 11.95,-2.62 18.03,-2.62 9.02,0 17.19,1.89 24.43,5.66 7.24,3.77 14.26,7.86 21.18,12.26 6.92,4.41 14.05,8.49 21.39,12.27 7.34,3.77 15.73,5.66 25.16,5.66 6.29,0 13.21,-1.05 20.65,-3.04 7.44,-1.99 14.36,-4.82 20.76,-8.6 6.39,-3.78 11.63,-8.49 15.83,-14.05 4.2,-5.56 6.29,-11.95 6.29,-19.29 0,-6.92 -1.89,-12.58 -5.77,-16.98 -3.88,-4.4 -9.12,-8.28 -15.73,-11.53 -6.6,-3.25 -14.26,-6.19 -22.85,-8.91 -8.59,-2.73 -17.61,-5.98 -27.05,-9.75 -15.52,-5.87 -30.82,-12.26 -45.92,-19.19 -15.1,-6.92 -28.62,-15.52 -40.57,-25.69 -11.95,-10.17 -21.6,-22.54 -29.05,-37.11 -7.44,-14.57 -11.22,-32.61 -11.22,-54.2 0,-20.34 4.19,-38.48 12.48,-54.31 8.28,-15.83 19.19,-29.15 32.82,-40.05 13.63,-10.91 29.25,-19.29 46.76,-25.06 17.51,-5.77 35.44,-8.6 53.89,-8.6 13.42,0 26.52,2.2 39.21,6.71 12.69,4.51 24.64,10.38 35.96,17.61 11.32,7.23 21.91,15.52 31.76,24.74 9.86,9.23 18.77,18.66 26.74,28.31l-31.77 26.73c-6.29,5.45 -12.79,9.33 -19.6,11.64 -6.81,2.31 -14.47,3.46 -22.85,3.46 -6.71,0 -12.59,-0.84 -17.62,-2.52 -5.03,-1.68 -9.75,-3.57 -14.15,-5.56 -4.4,-1.99 -8.81,-3.77 -13.21,-5.45 -4.4,-1.68 -9.22,-2.52 -14.47,-2.52zm186.2 -2.83l0 -96.24 353.52 0 0 96.24 -125.18 0 0 354.77 -102.85 0 0 -354.77 -125.49 0zm520.21 173.3c0,11.32 2.31,22.02 6.92,32.08 4.61,10.07 10.8,18.87 18.56,26.42 7.76,7.55 16.78,13.52 26.94,17.93 10.17,4.4 20.86,6.61 32.19,6.61 11.32,0 22.12,-2.2 32.29,-6.61 10.17,-4.4 19.19,-10.38 27.05,-17.93 7.86,-7.55 14.05,-16.35 18.66,-26.42 4.61,-10.06 6.92,-20.76 6.92,-32.08l0 -269.22 102.85 0 0 269.22c0,25.79 -4.93,49.9 -14.78,72.44 -9.86,22.54 -23.28,42.25 -40.26,59.02 -16.99,16.78 -36.8,29.98 -59.55,39.73 -22.75,9.75 -47.18,14.68 -73.18,14.68 -17.19,0 -33.76,-2.2 -49.7,-6.6 -15.93,-4.41 -30.82,-10.69 -44.66,-18.77 -13.84,-8.07 -26.52,-17.72 -38.06,-29.04 -11.53,-11.32 -21.39,-23.9 -29.56,-37.64 -8.18,-13.73 -14.47,-28.52 -18.98,-44.34 -4.51,-15.83 -6.81,-32.29 -6.81,-49.48l0 -269.22 103.16 0 0 269.22zm372.7 181.47l0 -450.7 186.51 0c20.76,0 40.89,2.62 60.28,7.97 19.39,5.35 37.43,13 54.2,22.85 16.78,9.85 32.19,21.6 46.13,35.33 13.94,13.73 25.79,28.94 35.65,45.61 9.86,16.67 17.51,34.59 22.96,53.78 5.45,19.19 8.18,39.21 8.18,59.97 0,20.76 -2.72,40.68 -8.18,59.86 -5.45,19.19 -13.1,37.11 -22.96,53.78 -9.85,16.67 -21.7,31.87 -35.65,45.61 -13.94,13.73 -29.35,25.47 -46.13,35.22 -16.78,9.75 -34.81,17.3 -54.2,22.65 -19.39,5.35 -39.52,8.07 -60.28,8.07l-186.51 0zm186.51 -103.16c16.57,0 32.4,-3.25 47.39,-9.64 14.99,-6.4 28.2,-15.1 39.63,-26.11 11.43,-11.01 20.44,-23.9 27.15,-38.79 6.71,-14.89 10.07,-30.72 10.07,-47.49 0,-16.78 -3.36,-32.61 -10.07,-47.49 -6.71,-14.89 -15.72,-27.89 -27.15,-39 -11.43,-11.11 -24.63,-19.92 -39.63,-26.31 -14.99,-6.39 -30.82,-9.54 -47.39,-9.54l-83.66 0 0 244.37 83.66 0zm424.92 103.16l-103.17 0 0 -450.7 103.17 0 0 450.7zm94.67 -225.5c0,-21.18 2.83,-41.62 8.39,-61.22 5.56,-19.61 13.31,-37.85 23.38,-54.83 10.06,-16.98 22.12,-32.5 36.17,-46.44 14.05,-13.94 29.67,-25.89 46.86,-35.85 17.19,-9.96 35.65,-17.61 55.35,-23.06 19.71,-5.45 40.16,-8.18 61.33,-8.18 21.18,0 41.62,2.72 61.33,8.18 19.71,5.45 38.16,13.11 55.35,23.06 17.2,9.96 32.82,21.91 46.87,35.85 14.05,13.94 26.11,29.46 36.17,46.44 10.07,16.98 17.93,35.22 23.48,54.83 5.56,19.6 8.28,40.05 8.28,61.22 0,21.18 -2.73,41.52 -8.28,61.12 -5.56,19.61 -13.42,37.95 -23.48,54.94 -10.06,16.98 -22.12,32.39 -36.17,46.34 -14.05,13.94 -29.67,25.89 -46.87,35.85 -17.19,9.96 -35.64,17.72 -55.35,23.17 -19.71,5.45 -40.15,8.18 -61.33,8.18 -21.39,0 -41.83,-2.73 -61.44,-8.18 -19.6,-5.45 -38.06,-13.21 -55.25,-23.17 -17.19,-9.96 -32.81,-21.91 -46.86,-35.85 -14.05,-13.94 -26.11,-29.35 -36.17,-46.34 -10.06,-16.98 -17.82,-35.33 -23.38,-54.94 -5.56,-19.6 -8.39,-39.94 -8.39,-61.12zm102.85 0c0,17.4 3.46,33.76 10.38,49.17 6.92,15.41 16.25,28.93 27.99,40.46 11.74,11.53 25.37,20.55 40.89,27.15 15.52,6.61 31.97,9.96 49.38,9.96 17.19,0 33.65,-3.35 49.27,-9.96 15.62,-6.61 29.25,-15.62 40.99,-27.15 11.74,-11.53 21.07,-25.06 27.99,-40.46 6.92,-15.41 10.38,-31.77 10.38,-49.17 0,-17.41 -3.46,-33.86 -10.38,-49.28 -6.92,-15.41 -16.25,-28.83 -27.99,-40.26 -11.74,-11.43 -25.37,-20.44 -40.99,-27.15 -15.62,-6.71 -32.08,-10.06 -49.27,-10.06 -17.41,0 -33.86,3.35 -49.38,10.06 -15.52,6.71 -29.15,15.72 -40.89,27.15 -11.74,11.43 -21.07,24.85 -27.99,40.26 -6.92,15.41 -10.38,31.87 -10.38,49.28z"/>
 </g>
</svg>
